<svg width="656" height="474" viewBox="0 0 656 474" fill="none" xmlns="http://www.w3.org/2000/svg">
<g clip-path="url(#clip0_277_1952)">
<path d="M514.834 42.5966C513.179 30.46 511.104 17.4296 502.544 8.66849C499.828 5.88859 496.577 3.68751 492.987 2.19795C489.397 0.708391 485.543 -0.0388045 481.657 0.00141979C477.77 0.0416441 473.932 0.868463 470.374 2.43201C466.816 3.99555 463.611 6.26345 460.953 9.09897C454.722 15.7463 451.97 25.0802 451.718 34.188C451.467 43.2957 453.495 52.3023 455.745 61.1313C467.654 61.3691 479.474 59.0426 490.404 54.3095C493.082 53.002 495.861 51.9111 498.713 51.0471C501.601 50.3122 503.659 52.1615 506.345 53.4511L507.82 50.6279C509.027 52.8741 512.764 52.2083 514.12 50.0486C515.475 47.8889 515.178 45.123 514.834 42.5966Z" fill="#2F2E41"/>
<path d="M465.097 93.8408L468.545 76.2273L442.691 65.0348L396.472 42.8918C396.15 40.8371 395.212 38.9287 393.781 37.4189C392.351 35.9091 390.496 34.8691 388.462 34.4365C386.427 34.004 384.31 34.1992 382.389 34.9963C380.468 35.7934 378.834 37.155 377.704 38.9008C376.574 40.6466 376 42.6944 376.059 44.7734C376.118 46.8523 376.806 48.8644 378.034 50.5435C379.261 52.2225 380.969 53.4894 382.932 54.1766C384.895 54.8638 387.02 54.9388 389.027 54.3918L433.034 81.5503L465.097 93.8408Z" fill="#FFB8B8"/>
<path d="M447.742 90.8607L466.467 71.7189L466.837 71.8315C467.07 71.902 490.335 78.9945 505.167 86.2019C506.843 86.9544 508.335 88.0635 509.539 89.4518C510.742 90.8402 511.629 92.4745 512.136 94.2406C512.874 96.7134 512.874 99.348 512.136 101.821C511.398 104.294 509.953 106.497 507.98 108.161C505.952 109.976 503.444 111.169 500.756 111.597C498.068 112.025 495.313 111.67 492.822 110.574L447.742 90.8607Z" fill="#3913B8"/>
<path d="M447.684 175.017L500.338 189.087L510.971 139.346L462.642 124.387L447.684 175.017Z" fill="#FFB8B8"/>
<path d="M506.231 161.516L454.795 149.687L444.945 125.815C444.144 122.407 444.338 118.841 445.506 115.541C446.674 112.241 448.765 109.346 451.531 107.201L470.324 91.3346L480.399 78.4651L479.302 71.645C479.106 70.2819 479.392 68.8931 480.111 67.7186C480.83 66.544 481.937 65.6576 483.24 65.2125L496.667 60.3975C498.151 59.8424 499.791 59.8722 501.254 60.4807C502.717 61.0891 503.895 62.2309 504.548 63.6748L505.971 66.9677C505.971 66.9677 512.042 69.8248 515.465 71.432C517.227 72.2329 518.799 73.3967 520.08 74.8474C521.36 76.2981 522.32 78.0029 522.896 79.8502C528.135 96.7823 526.723 115.075 518.946 131.002L506.231 161.516Z" fill="#0F40EC"/>
<path d="M48.7907 414.93L23.9208 408.275C20.2641 395.258 19.8401 381.545 22.6857 368.327C33.5357 389.775 62.6755 393.819 79.938 410.544C85.2821 415.802 89.3744 422.195 91.9119 429.25C94.4493 436.304 95.3668 443.839 94.5963 451.296L100.554 468.556C88.4611 468.078 76.6158 464.983 65.834 459.486C55.0522 453.989 45.5903 446.22 38.1001 436.714C33.951 431.34 30.4952 425.464 27.8142 419.226C38.2208 417.702 48.7907 414.93 48.7907 414.93Z" fill="#F2F2F2"/>
<path d="M357.77 473.406H114.013C107.48 473.398 101.217 470.8 96.5981 466.181C91.9788 461.561 89.3804 455.298 89.373 448.766V126.003C89.3804 119.47 91.9788 113.207 96.5981 108.588C101.217 103.969 107.48 101.37 114.013 101.363H357.77C364.303 101.37 370.566 103.969 375.185 108.588C379.805 113.207 382.403 119.47 382.41 126.003V448.766C382.403 455.298 379.805 461.561 375.185 466.181C370.566 470.8 364.303 473.398 357.77 473.406Z" fill="#E6E6E6"/>
<path d="M264.735 453.427H131.147C125.199 453.421 119.496 451.055 115.29 446.848C111.084 442.642 108.719 436.94 108.712 430.991V143.777C108.719 137.829 111.084 132.126 115.29 127.92C119.497 123.714 125.199 121.348 131.147 121.342H340.636C346.584 121.348 352.287 123.714 356.493 127.92C360.699 132.126 363.065 137.829 363.071 143.777V355.091C363.042 381.163 352.672 406.158 334.237 424.593C315.802 443.028 290.807 453.398 264.735 453.427Z" fill="white"/>
<path d="M319.738 176.481H152.045C151.327 176.482 150.616 176.342 149.952 176.068C149.288 175.794 148.684 175.392 148.176 174.884C147.668 174.377 147.264 173.775 146.988 173.112C146.713 172.448 146.57 171.737 146.569 171.019C146.568 170.301 146.709 169.59 146.983 168.926C147.257 168.262 147.659 167.659 148.166 167.15C148.674 166.642 149.276 166.238 149.939 165.962C150.602 165.687 151.313 165.544 152.031 165.543H319.738C321.189 165.542 322.58 166.116 323.607 167.14C324.634 168.165 325.212 169.555 325.214 171.006C325.216 172.456 324.641 173.848 323.617 174.875C322.593 175.902 321.202 176.48 319.752 176.481H319.738Z" fill="#FF6363"/>
<path d="M319.738 198.092H152.045C150.595 198.092 149.204 197.516 148.178 196.49C147.152 195.465 146.576 194.074 146.576 192.623C146.576 191.173 147.152 189.781 148.178 188.756C149.204 187.73 150.595 187.154 152.045 187.154H319.738C321.189 187.154 322.58 187.73 323.606 188.756C324.631 189.781 325.208 191.173 325.208 192.623C325.208 194.074 324.631 195.465 323.606 196.49C322.58 197.516 321.189 198.092 319.738 198.092Z" fill="#FF6363"/>
<path d="M224.736 219.703H152.045C150.595 219.703 149.204 219.127 148.178 218.101C147.152 217.076 146.576 215.684 146.576 214.234C146.576 212.783 147.152 211.392 148.178 210.367C149.204 209.341 150.595 208.765 152.045 208.765H224.736C226.187 208.765 227.578 209.341 228.604 210.367C229.629 211.392 230.206 212.783 230.206 214.234C230.206 215.684 229.629 217.076 228.604 218.101C227.578 219.127 226.187 219.703 224.736 219.703Z" fill="#FF6363"/>
<path d="M319.738 264.964H152.045C150.595 264.966 149.203 264.392 148.176 263.367C147.149 262.343 146.571 260.953 146.569 259.502C146.568 258.052 147.142 256.66 148.166 255.633C149.191 254.606 150.581 254.028 152.031 254.026H319.738C321.189 254.025 322.58 254.599 323.607 255.623C324.634 256.648 325.212 258.038 325.214 259.489C325.216 260.939 324.641 262.331 323.617 263.358C322.593 264.385 321.202 264.963 319.752 264.964H319.738Z" fill="#E4E4E4"/>
<path d="M319.738 286.575H152.045C150.595 286.575 149.204 285.999 148.178 284.973C147.152 283.947 146.576 282.556 146.576 281.106C146.576 279.655 147.152 278.264 148.178 277.238C149.204 276.213 150.595 275.636 152.045 275.636H319.738C321.189 275.636 322.58 276.213 323.606 277.238C324.631 278.264 325.208 279.655 325.208 281.106C325.208 282.556 324.631 283.947 323.606 284.973C322.58 285.999 321.189 286.575 319.738 286.575Z" fill="#E4E4E4"/>
<path d="M224.736 308.186H152.045C150.595 308.186 149.204 307.61 148.178 306.584C147.152 305.558 146.576 304.167 146.576 302.717C146.576 301.266 147.152 299.875 148.178 298.849C149.204 297.824 150.595 297.247 152.045 297.247H224.736C226.187 297.247 227.578 297.824 228.604 298.849C229.629 299.875 230.206 301.266 230.206 302.717C230.206 304.167 229.629 305.558 228.604 306.584C227.578 307.61 226.187 308.186 224.736 308.186Z" fill="#E4E4E4"/>
<path d="M319.738 353.447H152.045C150.595 353.449 149.203 352.874 148.176 351.85C147.149 350.826 146.571 349.435 146.569 347.985C146.568 346.534 147.142 345.143 148.166 344.116C149.191 343.089 150.581 342.511 152.031 342.509H319.738C321.189 342.507 322.58 343.082 323.607 344.106C324.634 345.13 325.212 346.521 325.214 347.971C325.216 349.422 324.641 350.813 323.617 351.84C322.593 352.867 321.202 353.445 319.752 353.447H319.738Z" fill="#E4E4E4"/>
<path d="M319.738 375.058H152.045C150.595 375.058 149.204 374.482 148.178 373.456C147.152 372.43 146.576 371.039 146.576 369.589C146.576 368.138 147.152 366.747 148.178 365.721C149.204 364.696 150.595 364.119 152.045 364.119H319.738C321.189 364.119 322.58 364.696 323.606 365.721C324.631 366.747 325.208 368.138 325.208 369.589C325.208 371.039 324.631 372.43 323.606 373.456C322.58 374.482 321.189 375.058 319.738 375.058Z" fill="#E4E4E4"/>
<path d="M224.736 396.669H152.045C150.596 396.666 149.208 396.088 148.184 395.063C147.161 394.038 146.586 392.648 146.586 391.199C146.586 389.751 147.161 388.361 148.184 387.336C149.208 386.31 150.596 385.733 152.045 385.73H224.736C226.184 385.733 227.573 386.31 228.596 387.336C229.62 388.361 230.194 389.751 230.194 391.199C230.194 392.648 229.62 394.038 228.596 395.063C227.573 396.088 226.184 396.666 224.736 396.669Z" fill="#E4E4E4"/>
<path d="M370.373 178.74C409.64 178.74 441.473 146.907 441.473 107.64C441.473 68.3729 409.64 36.5405 370.373 36.5405C331.106 36.5405 299.273 68.3729 299.273 107.64C299.273 146.907 331.106 178.74 370.373 178.74Z" fill="#FF6363"/>
<path opacity="0.16" d="M370.373 168.891C352.385 168.888 335.067 162.067 321.909 149.802C308.751 137.536 300.732 120.739 299.468 102.796C299.353 104.451 299.273 106.116 299.273 107.801C299.281 126.653 306.774 144.73 320.107 158.058C333.44 171.386 351.521 178.874 370.373 178.874C389.225 178.874 407.306 171.386 420.639 158.058C433.972 144.73 441.466 126.653 441.473 107.801C441.473 106.116 441.393 104.451 441.278 102.796C440.014 120.739 431.995 137.536 418.837 149.802C405.679 162.067 388.361 168.888 370.373 168.891Z" fill="#231F20"/>
<path d="M370.373 142.385C368.012 142.382 365.749 141.443 364.08 139.774C362.41 138.105 361.471 135.842 361.469 133.481V81.9599C361.468 80.7898 361.697 79.6309 362.144 78.5496C362.591 77.4682 363.246 76.4855 364.073 75.6577C364.9 74.8298 365.882 74.1731 366.963 73.7251C368.044 73.277 369.203 73.0464 370.373 73.0464C371.543 73.0464 372.702 73.277 373.782 73.7251C374.863 74.1731 375.845 74.8298 376.672 75.6577C377.499 76.4855 378.155 77.4682 378.602 78.5496C379.049 79.6309 379.278 80.7898 379.277 81.9599V133.481C379.274 135.842 378.335 138.105 376.666 139.774C374.997 141.443 372.734 142.382 370.373 142.385Z" fill="white"/>
<path d="M335.709 107.721C335.712 105.36 336.651 103.097 338.32 101.427C339.989 99.758 342.253 98.819 344.613 98.8163H396.134C397.304 98.815 398.463 99.0444 399.545 99.4913C400.626 99.9383 401.609 100.594 402.437 101.421C403.264 102.248 403.921 103.23 404.369 104.311C404.817 105.392 405.048 106.55 405.048 107.72C405.048 108.89 404.817 110.049 404.369 111.13C403.921 112.211 403.264 113.193 402.437 114.02C401.609 114.847 400.626 115.502 399.545 115.949C398.463 116.396 397.304 116.626 396.134 116.624H344.613C342.253 116.622 339.989 115.683 338.32 114.014C336.651 112.344 335.712 110.081 335.709 107.721Z" fill="white"/>
<path d="M477.254 122.828L462.125 113.173L442.247 133.136L404.725 168.045C402.695 167.593 400.575 167.768 398.647 168.546C396.718 169.325 395.071 170.67 393.924 172.405C392.777 174.14 392.184 176.182 392.222 178.262C392.261 180.341 392.93 182.36 394.141 184.051C395.353 185.741 397.048 187.025 399.005 187.731C400.961 188.437 403.085 188.532 405.097 188.005C407.109 187.477 408.913 186.351 410.271 184.776C411.629 183.201 412.476 181.25 412.702 179.183L454.082 148.168L477.254 122.828Z" fill="#FFB8B8"/>
<path d="M468.129 137.888L457.168 113.457L457.408 113.154C457.559 112.963 472.674 93.9074 484.809 82.7429C486.123 81.4583 487.701 80.4758 489.434 79.8637C491.166 79.2517 493.012 79.025 494.841 79.1993C497.412 79.4183 499.863 80.3829 501.894 81.9748C503.925 83.5666 505.447 85.7166 506.274 88.161C507.222 90.7127 507.414 93.4832 506.828 96.1413C506.243 98.7995 504.904 101.233 502.973 103.15L468.129 137.888Z" fill="#3913B8"/>
<path d="M478.032 57.5859C491.168 57.5859 501.817 46.9367 501.817 33.8002C501.817 20.6637 491.168 10.0145 478.032 10.0145C464.895 10.0145 454.246 20.6637 454.246 33.8002C454.246 46.9367 464.895 57.5859 478.032 57.5859Z" fill="#FFB8B8"/>
<path d="M441.077 456.369H431.244L426.564 418.442H441.077V456.369Z" fill="#FFB8B8"/>
<path d="M446.266 473.406H439.215L437.956 466.748L434.732 473.406H416.03C415.133 473.406 414.26 473.119 413.538 472.588C412.816 472.057 412.282 471.309 412.016 470.453C411.749 469.597 411.763 468.678 412.055 467.831C412.347 466.983 412.903 466.251 413.641 465.742L428.576 455.427V448.697L444.285 449.634L446.266 473.406Z" fill="#2F2E41"/>
<path d="M564.317 448.015L555.181 451.652L536.806 418.145L550.29 412.777L564.317 448.015Z" fill="#FFB8B8"/>
<path d="M575.44 461.925L568.888 464.533L565.257 458.813L564.724 466.19L547.347 473.107C546.514 473.439 545.597 473.496 544.73 473.269C543.862 473.043 543.09 472.545 542.526 471.848C541.961 471.152 541.634 470.293 541.592 469.398C541.551 468.502 541.796 467.617 542.293 466.87L552.355 451.763L549.865 445.51L564.808 440.571L575.44 461.925Z" fill="#2F2E41"/>
<path d="M444.87 438.946H424.53L430.151 343.387L426.042 278.615L426.051 278.563L441.377 185.716C442.583 178.394 445.841 171.565 450.773 166.022L450.959 165.811L502.251 178.479L507.408 190.238C525.017 200.711 530.578 259.771 530.807 262.286L538.262 335.91L556.498 426.144L543.656 433.059L543.441 432.631L502.898 352.011L477.294 266.993L460.897 343.511L444.87 438.946Z" fill="#2F2E41"/>
<path d="M507.489 34.9196C506.647 29.3908 505.768 23.8157 503.791 18.6098C501.813 13.4039 498.626 8.5278 494.054 5.57873C486.815 0.909613 477.443 1.81012 469.326 4.49592C463.05 6.57301 456.923 9.73001 452.497 14.8054C448.07 19.8808 445.584 27.1229 447.231 33.7592C455.888 31.7137 464.546 29.6682 473.203 27.6227L472.255 28.2924C475.098 29.7099 477.581 31.7563 479.514 34.2764C481.448 36.7965 482.782 39.7241 483.415 42.8368C484.034 45.9873 483.945 49.2361 483.155 52.3481C482.365 55.4601 480.892 58.3574 478.845 60.8306C484.749 58.736 490.654 56.6415 496.558 54.547C500.203 53.2542 504.103 51.7645 506.264 48.4484C508.77 44.6037 508.188 39.5078 507.489 34.9196Z" fill="#2F2E41"/>
<path d="M1.24698 473.177H653.8C654.131 473.177 654.448 473.045 654.682 472.811C654.916 472.578 655.047 472.26 655.047 471.93C655.047 471.599 654.916 471.282 654.682 471.048C654.448 470.814 654.131 470.683 653.8 470.683H1.24698C0.916254 470.683 0.599092 470.814 0.365234 471.048C0.131377 471.282 0 471.599 0 471.93C0 472.26 0.131377 472.578 0.365234 472.811C0.599092 473.045 0.916254 473.177 1.24698 473.177Z" fill="#CCCCCC"/>
</g>
<defs>
<clipPath id="clip0_277_1952">
<rect width="655.047" height="473.406" fill="white"/>
</clipPath>
</defs>
</svg>
