<svg width="1277" height="2013" viewBox="0 0 1277 2013" fill="none" xmlns="http://www.w3.org/2000/svg">
<rect opacity="0.111111" width="1012.75" height="1063.55" rx="200" transform="matrix(-0.809225 -0.587499 0.587961 -0.808889 -355.555 1875.15)" stroke="#E672BD" stroke-width="1.44444" stroke-linecap="round"/>
<rect opacity="0.222222" width="1032.75" height="1083.55" rx="200" transform="matrix(-0.809225 -0.587499 0.587961 -0.808889 -365.555 1865.15)" stroke="#DA6DC5" stroke-width="1.88889" stroke-linecap="round"/>
<rect opacity="0.333333" width="1052.75" height="1103.55" rx="200" transform="matrix(-0.809225 -0.587499 0.587961 -0.808889 -375.555 1855.15)" stroke="#CE69CE" stroke-width="2.33333" stroke-linecap="round"/>
<rect opacity="0.444444" width="1072.75" height="1123.55" rx="200" transform="matrix(-0.809225 -0.587499 0.587961 -0.808889 -385.555 1845.15)" stroke="#C265D6" stroke-width="2.77778" stroke-linecap="round"/>
<rect opacity="0.555556" width="1092.75" height="1143.55" rx="200" transform="matrix(-0.809225 -0.587499 0.587961 -0.808889 -395.555 1835.15)" stroke="#B660DE" stroke-width="3.22222" stroke-linecap="round"/>
<rect opacity="0.666667" width="1112.75" height="1163.55" rx="200" transform="matrix(-0.809225 -0.587499 0.587961 -0.808889 -405.555 1825.15)" stroke="#AA5CE6" stroke-width="3.66667" stroke-linecap="round"/>
<rect opacity="0.777778" width="1132.75" height="1183.55" rx="200" transform="matrix(-0.809225 -0.587499 0.587961 -0.808889 -415.555 1815.15)" stroke="#9E58EF" stroke-width="4.11111" stroke-linecap="round"/>
<rect opacity="0.888889" width="1152.75" height="1203.55" rx="200" transform="matrix(-0.809225 -0.587499 0.587961 -0.808889 -425.555 1805.15)" stroke="#9253F7" stroke-width="4.55556" stroke-linecap="round"/>
<rect width="1172.75" height="1223.55" rx="200" transform="matrix(-0.809225 -0.587499 0.587961 -0.808889 -435.555 1795.15)" stroke="#864FFF" stroke-width="5" stroke-linecap="round"/>
<g opacity="0.0714286" filter="url(#filter0_d_176_3000)">
<path fill-rule="evenodd" clip-rule="evenodd" d="M545.029 735.648C601.055 753.052 566.442 885.51 620.774 908.617C675.435 931.863 726.973 815.489 782.339 836.572C824.239 852.528 815.321 931.455 808.54 980.117C801.877 1027.93 736.787 1057.88 744.874 1105.42C754.156 1159.98 838.87 1168.21 849.756 1222.41C858.188 1264.39 822.278 1307.66 790.385 1332.02C757.434 1357.18 702.147 1325.78 673.612 1356.91C634.212 1399.88 662.666 1501.09 612.321 1526.25C569.303 1547.74 536.471 1461.54 490.858 1448.22C449.174 1436.04 402.126 1472.81 362.747 1453.34C324.292 1434.32 305.096 1385.77 283.433 1345.65C262.815 1307.47 244.885 1266.96 238.38 1223.02C232.09 1180.53 241.835 1138 246.366 1095.24C250.821 1053.18 249.696 1009.75 265.079 971.015C280.642 931.826 301.935 891.421 335.589 870.562C369.672 849.438 417.133 877.593 450.897 855.843C492.596 828.983 498.616 721.229 545.029 735.648Z" stroke="black" stroke-width="1.28571" stroke-linecap="round" stroke-dasharray="200 10"/>
</g>
<g opacity="0.142857" filter="url(#filter1_d_176_3000)">
<path fill-rule="evenodd" clip-rule="evenodd" d="M545.114 716.916C604.565 735.143 567.836 873.861 625.491 898.059C683.494 922.404 738.184 800.531 796.935 822.61C841.397 839.319 831.935 921.977 824.739 972.939C817.668 1023.01 748.598 1054.37 757.179 1104.16C767.029 1161.31 856.924 1169.92 868.475 1226.68C877.423 1270.65 839.316 1315.97 805.473 1341.47C770.507 1367.82 711.839 1334.94 681.56 1367.53C639.75 1412.54 669.945 1518.54 616.52 1544.88C570.872 1567.39 536.032 1477.12 487.629 1463.16C443.397 1450.41 393.472 1488.91 351.684 1468.52C310.878 1448.61 290.508 1397.76 267.52 1355.75C245.641 1315.76 226.615 1273.34 219.712 1227.32C213.038 1182.82 223.378 1138.29 228.186 1093.5C232.914 1049.46 231.72 1003.97 248.044 963.407C264.559 922.366 287.154 880.051 322.866 858.207C359.033 836.083 409.397 865.569 445.225 842.792C489.474 814.662 495.862 701.816 545.114 716.916Z" stroke="#38A4FE" stroke-width="1.57143" stroke-linecap="round" stroke-dasharray="200 10"/>
</g>
<g opacity="0.214286" filter="url(#filter2_d_176_3000)">
<path fill-rule="evenodd" clip-rule="evenodd" d="M545.197 698.184C608.074 717.234 569.228 862.211 630.205 887.502C691.551 912.946 749.393 785.572 811.53 808.648C858.554 826.111 848.546 912.499 840.936 965.761C833.458 1018.09 760.407 1050.87 769.483 1102.9C779.9 1162.63 874.976 1171.63 887.193 1230.95C896.656 1276.9 856.353 1324.27 820.56 1350.92C783.579 1378.46 721.53 1344.1 689.506 1378.16C645.287 1425.2 677.221 1535.98 620.718 1563.51C572.439 1587.04 535.592 1492.69 484.4 1478.11C437.618 1464.78 384.816 1505.02 340.62 1483.71C297.463 1462.9 275.918 1409.76 251.606 1365.85C228.466 1324.06 208.343 1279.72 201.043 1231.62C193.984 1185.11 204.92 1138.57 210.005 1091.76C215.006 1045.73 213.743 998.197 231.007 955.799C248.474 912.905 272.371 868.681 310.141 845.851C348.392 822.729 401.659 853.546 439.552 829.741C486.35 800.341 493.107 682.403 545.197 698.184Z" stroke="#3D9BFE" stroke-width="1.85714" stroke-linecap="round" stroke-dasharray="200 10"/>
</g>
<g opacity="0.285714" filter="url(#filter3_d_176_3000)">
<path fill-rule="evenodd" clip-rule="evenodd" d="M545.281 679.452C611.584 699.325 570.622 850.562 634.921 876.945C699.61 903.487 760.603 770.614 826.126 794.686C875.712 812.903 865.159 903.021 857.134 958.583C849.248 1013.17 772.217 1047.37 781.787 1101.65C792.773 1163.95 893.028 1173.34 905.911 1235.23C915.89 1283.16 873.391 1332.57 835.648 1360.38C796.652 1389.1 731.222 1353.26 697.453 1388.79C650.824 1437.86 684.499 1553.43 624.917 1582.15C574.007 1606.69 535.152 1508.27 481.171 1493.05C431.84 1479.15 376.161 1521.13 329.557 1498.9C284.048 1477.19 261.329 1421.75 235.693 1375.95C211.292 1332.35 190.073 1286.1 182.374 1235.92C174.931 1187.41 186.463 1138.85 191.825 1090.02C197.098 1042.01 195.766 992.419 213.971 948.191C232.389 903.445 257.589 857.312 297.417 833.495C337.752 809.375 393.921 841.522 433.879 816.689C483.227 786.02 490.352 662.989 545.281 679.452Z" stroke="#4191FD" stroke-width="2.14286" stroke-linecap="round" stroke-dasharray="200 10"/>
</g>
<g opacity="0.357143" filter="url(#filter4_d_176_3000)">
<path fill-rule="evenodd" clip-rule="evenodd" d="M545.364 660.72C615.094 681.415 572.015 838.913 639.637 866.388C707.668 894.029 771.813 755.655 840.721 780.724C892.87 799.695 881.772 893.543 873.331 951.405C865.039 1008.26 784.027 1043.86 794.092 1100.39C805.645 1165.27 911.081 1175.05 924.629 1239.5C935.124 1289.42 890.429 1340.87 850.736 1369.83C809.724 1399.75 740.914 1362.41 705.4 1399.42C656.361 1450.53 691.776 1570.87 629.115 1600.78C575.575 1626.34 534.712 1523.84 477.942 1508C426.062 1493.52 367.506 1537.23 318.493 1514.08C270.633 1491.47 246.741 1433.75 219.779 1386.04C194.118 1340.64 171.802 1292.48 163.706 1240.22C155.878 1189.7 168.005 1139.14 173.645 1088.29C179.19 1038.28 177.79 986.641 196.936 940.582C216.305 893.985 242.807 845.942 284.693 821.139C327.112 796.021 386.184 829.499 428.206 803.638C480.105 771.699 487.598 643.576 545.364 660.72Z" stroke="#4687FD" stroke-width="2.42857" stroke-linecap="round" stroke-dasharray="200 10"/>
</g>
<g opacity="0.428571" filter="url(#filter5_d_176_3000)">
<path fill-rule="evenodd" clip-rule="evenodd" d="M545.448 641.988C618.603 663.506 573.408 827.263 644.352 855.83C715.726 884.57 783.023 740.696 855.317 766.762C910.028 786.487 898.384 884.065 889.529 944.227C880.829 1003.34 795.837 1040.36 806.396 1099.14C818.517 1166.6 929.133 1176.76 943.347 1243.77C954.358 1295.68 907.467 1349.17 865.823 1379.28C822.797 1410.39 750.605 1371.57 713.346 1410.05C661.899 1463.19 699.053 1588.31 633.314 1619.41C577.143 1645.98 534.273 1539.42 474.713 1522.94C420.284 1507.88 358.851 1553.34 307.43 1529.27C257.218 1505.76 232.152 1445.74 203.866 1396.14C176.943 1348.93 153.531 1298.85 145.037 1244.52C136.825 1191.99 149.548 1139.42 155.465 1086.55C161.283 1034.56 159.813 980.864 179.9 932.974C200.221 884.524 228.025 834.572 271.969 808.784C316.473 782.667 378.446 817.475 422.534 790.586C476.982 757.378 484.843 624.163 545.448 641.988Z" stroke="#4A7DFC" stroke-width="2.71429" stroke-linecap="round" stroke-dasharray="200 10"/>
</g>
<g opacity="0.5" filter="url(#filter6_d_176_3000)">
<path fill-rule="evenodd" clip-rule="evenodd" d="M545.531 623.257C622.112 645.596 574.8 815.614 649.067 845.273C723.783 875.111 794.232 725.738 869.912 752.8C927.185 773.279 914.996 874.587 905.726 937.049C896.619 998.419 807.646 1036.86 818.7 1097.88C831.388 1167.92 947.185 1178.48 962.065 1248.04C973.591 1301.93 924.504 1357.48 880.91 1388.73C835.869 1421.03 760.296 1380.73 721.292 1420.68C667.435 1475.85 706.33 1605.76 637.512 1638.04C578.71 1665.63 533.832 1554.99 471.483 1537.89C414.505 1522.25 350.195 1569.45 296.366 1544.45C243.803 1520.05 217.562 1457.73 187.951 1406.24C159.768 1357.23 135.26 1305.23 126.368 1248.83C117.771 1194.29 131.09 1139.71 137.284 1084.81C143.374 1030.83 141.836 975.086 162.863 925.366C184.136 875.064 213.242 823.202 259.244 796.428C305.832 769.313 370.708 805.452 416.86 777.535C473.858 743.058 482.087 604.749 545.531 623.257Z" stroke="#4F74FC" stroke-width="3" stroke-linecap="round" stroke-dasharray="200 10"/>
</g>
<g opacity="0.571429" filter="url(#filter7_d_176_3000)">
<path fill-rule="evenodd" clip-rule="evenodd" d="M545.614 604.525C625.621 627.687 576.192 803.965 653.782 834.716C731.841 865.653 805.441 710.78 884.507 738.837C944.342 760.071 931.608 865.11 921.923 929.871C912.408 993.501 819.455 1033.36 831.004 1096.62C844.26 1169.24 965.237 1180.19 980.782 1252.32C992.824 1308.19 941.542 1365.78 895.997 1398.19C848.94 1431.67 769.987 1389.89 729.238 1431.31C672.972 1488.51 713.607 1623.2 641.71 1656.68C580.277 1685.28 533.392 1570.56 468.253 1552.83C408.727 1536.62 341.539 1585.55 285.302 1559.64C230.387 1534.34 202.973 1469.73 172.037 1416.34C142.593 1365.52 116.988 1311.61 107.699 1253.13C98.7166 1196.58 112.632 1139.99 119.103 1083.07C125.465 1027.11 123.858 969.309 145.826 917.758C168.051 865.604 198.459 811.832 246.519 784.072C295.191 755.959 362.97 793.428 411.187 764.484C470.735 728.737 479.332 585.336 545.614 604.525Z" stroke="#546AFC" stroke-width="3.28571" stroke-linecap="round" stroke-dasharray="200 10"/>
</g>
<g opacity="0.642857" filter="url(#filter8_d_176_3000)">
<path fill-rule="evenodd" clip-rule="evenodd" d="M545.698 585.793C629.132 609.778 577.586 792.316 658.498 824.159C739.9 856.194 816.651 695.821 899.103 724.875C961.501 746.863 948.221 855.632 938.122 922.693C928.199 988.582 831.266 1029.85 843.309 1095.37C857.133 1170.56 983.291 1181.9 999.502 1256.59C1012.06 1314.45 958.58 1374.08 911.085 1407.64C862.014 1442.31 779.68 1399.05 737.186 1441.94C678.51 1501.17 720.885 1640.64 645.909 1675.31C581.846 1704.93 532.953 1586.14 465.025 1567.77C402.949 1550.99 332.884 1601.66 274.24 1574.83C216.973 1548.62 188.385 1481.72 156.125 1426.43C125.42 1373.81 98.7182 1317.99 89.0309 1257.43C79.6643 1198.87 94.1756 1140.27 100.923 1081.34C107.559 1023.38 105.883 963.531 128.791 910.149C151.968 856.143 183.678 800.462 233.796 771.717C284.552 742.605 355.233 781.405 405.515 751.432C467.613 714.416 476.578 565.923 545.698 585.793Z" stroke="#01054A" stroke-width="3.57143" stroke-linecap="round" stroke-dasharray="200 10"/>
</g>
<g opacity="0.714286" filter="url(#filter9_d_176_3000)">
<path fill-rule="evenodd" clip-rule="evenodd" d="M545.781 567.061C632.641 591.868 578.979 780.666 663.213 813.601C747.957 846.736 827.86 680.862 913.698 710.913C978.657 733.655 964.833 846.154 954.319 915.514C943.989 983.664 843.075 1026.35 855.613 1094.11C870.004 1171.89 1001.34 1183.61 1018.22 1260.86C1031.29 1320.7 975.617 1382.38 926.172 1417.09C875.086 1452.96 789.37 1408.2 745.132 1452.57C684.047 1513.83 728.161 1658.09 650.107 1693.94C583.413 1724.58 532.512 1601.71 461.795 1582.72C397.17 1565.36 324.228 1617.77 263.175 1590.01C203.557 1562.91 173.795 1493.71 140.21 1436.53C108.244 1382.11 80.4466 1324.37 70.3615 1261.73C60.6103 1201.17 75.7175 1140.56 82.7424 1079.6C89.65 1019.66 87.9054 957.754 111.755 902.541C135.883 846.683 168.895 789.092 221.071 759.361C273.912 729.25 347.495 769.381 399.841 738.381C464.489 700.095 473.823 546.509 545.781 567.061Z" stroke="#5D56FB" stroke-width="3.85714" stroke-linecap="round" stroke-dasharray="200 10"/>
</g>
<g opacity="0.785714" filter="url(#filter10_d_176_3000)">
<path fill-rule="evenodd" clip-rule="evenodd" d="M545.865 548.329C636.15 573.959 580.372 769.017 667.929 803.044C756.016 837.277 839.07 665.904 928.293 696.951C995.815 720.447 981.445 836.676 970.517 908.336C959.779 978.745 854.885 1022.85 867.918 1092.85C882.876 1173.21 1019.39 1185.32 1036.94 1265.14C1050.53 1326.96 992.655 1390.69 941.26 1426.55C888.158 1463.6 799.062 1417.36 753.079 1463.2C689.584 1526.49 735.439 1675.53 654.306 1712.57C584.981 1744.23 532.073 1617.29 458.566 1597.66C391.392 1579.73 315.573 1633.88 252.112 1605.2C190.143 1577.2 159.207 1505.71 124.297 1446.63C91.0702 1390.4 62.1759 1330.75 51.693 1266.03C41.5572 1203.46 57.2603 1140.84 64.5622 1077.86C71.7423 1015.93 69.9289 951.976 94.719 894.933C119.799 837.222 154.113 777.722 208.347 747.005C263.272 715.896 339.758 757.358 394.168 725.33C461.366 685.774 471.068 527.096 545.865 548.329Z" stroke="#614CFA" stroke-width="4.14286" stroke-linecap="round" stroke-dasharray="200 10"/>
</g>
<g opacity="0.857143" filter="url(#filter11_d_176_3000)">
<path fill-rule="evenodd" clip-rule="evenodd" d="M545.948 529.597C639.659 556.05 581.764 757.368 672.644 792.487C764.073 827.818 850.279 650.945 942.888 682.989C1012.97 707.239 998.057 827.198 986.714 901.158C975.569 973.827 866.694 1019.34 880.221 1091.6C895.748 1174.53 1037.45 1187.03 1055.65 1269.41C1069.76 1333.22 1009.69 1398.99 956.347 1436C901.23 1474.24 808.753 1426.52 761.025 1473.83C695.12 1539.15 742.715 1692.98 658.503 1731.21C586.549 1763.87 531.632 1632.86 455.336 1612.61C385.614 1594.1 306.917 1649.98 241.048 1620.39C176.727 1591.49 144.617 1517.7 108.383 1456.73C73.895 1398.69 43.9043 1337.12 33.0237 1270.33C22.5032 1205.75 38.8022 1141.12 46.3812 1076.12C53.8338 1012.21 51.9516 946.199 77.6824 887.325C103.714 827.762 139.331 766.352 195.622 734.649C252.631 702.542 332.02 745.334 388.495 712.278C458.243 671.453 468.313 507.683 545.948 529.597Z" stroke="#6643FA" stroke-width="4.42857" stroke-linecap="round" stroke-dasharray="200 10"/>
</g>
<g opacity="0.928571" filter="url(#filter12_d_176_3000)">
<path fill-rule="evenodd" clip-rule="evenodd" d="M546.032 510.865C643.17 538.14 583.158 745.718 677.36 781.929C772.132 818.36 861.49 635.987 957.485 669.027C1030.13 694.031 1014.67 817.72 1002.91 893.98C991.36 968.908 878.505 1015.84 892.527 1090.34C908.62 1175.85 1055.5 1188.74 1074.37 1273.68C1088.99 1339.47 1026.73 1407.29 971.435 1445.45C914.304 1484.88 818.445 1435.68 768.972 1484.46C700.659 1551.81 749.994 1710.42 662.703 1749.84C588.117 1783.52 531.193 1648.44 452.108 1627.55C379.836 1608.47 298.263 1666.09 229.986 1635.57C163.313 1605.78 130.029 1529.69 92.47 1466.82C56.7216 1406.98 25.6344 1343.5 14.356 1274.63C3.45091 1208.05 20.3458 1141.41 28.2019 1074.39C35.9269 1008.48 33.9759 940.421 60.6474 879.716C87.6307 818.302 124.549 754.982 182.899 722.294C241.992 689.188 324.283 733.311 382.823 699.227C455.121 657.133 465.559 488.269 546.032 510.865Z" stroke="#564489" stroke-width="4.71429" stroke-linecap="round" stroke-dasharray="200 10"/>
</g>
<g filter="url(#filter13_d_176_3000)">
<path fill-rule="evenodd" clip-rule="evenodd" d="M546.115 492.133C646.679 520.231 584.55 734.069 682.075 771.372C780.189 808.901 872.699 621.028 972.079 655.065C1047.29 680.823 1031.28 808.242 1019.11 886.802C1007.15 963.99 890.314 1012.34 904.83 1089.09C921.492 1177.18 1073.55 1190.46 1093.09 1277.95C1108.23 1345.73 1043.77 1415.59 986.522 1454.91C927.375 1495.52 828.136 1444.84 776.918 1495.09C706.195 1564.47 757.27 1727.86 666.901 1768.47C589.685 1803.17 530.753 1664.01 448.878 1642.5C374.058 1622.84 289.607 1682.2 218.922 1650.76C149.897 1620.06 115.44 1541.69 76.5557 1476.92C39.5465 1415.28 7.36285 1349.88 -4.31336 1278.94C-15.6031 1210.34 1.88767 1141.69 10.0208 1072.65C18.0183 1004.76 15.9985 934.643 43.6107 872.108C71.5458 808.841 109.767 743.612 170.174 709.938C231.352 675.834 316.545 721.287 377.15 686.175C451.997 642.812 462.804 468.856 546.115 492.133Z" stroke="#6F2FF9" stroke-width="5" stroke-linecap="round" stroke-dasharray="200 10"/>
</g>
<defs>
<filter id="filter0_d_176_3000" x="56.9358" y="554.936" width="973.458" height="1154.13" filterUnits="userSpaceOnUse" color-interpolation-filters="sRGB">
<feFlood flood-opacity="0" result="BackgroundImageFix"/>
<feColorMatrix in="SourceAlpha" type="matrix" values="0 0 0 0 0 0 0 0 0 0 0 0 0 0 0 0 0 0 127 0" result="hardAlpha"/>
<feOffset/>
<feGaussianBlur stdDeviation="89.3737"/>
<feColorMatrix type="matrix" values="0 0 0 0 0.129427 0 0 0 0 0.224219 0 0 0 0 0.4375 0 0 0 0.3 0"/>
<feBlend mode="normal" in2="BackgroundImageFix" result="effect1_dropShadow_176_3000"/>
<feBlend mode="normal" in="SourceGraphic" in2="effect1_dropShadow_176_3000" result="shape"/>
</filter>
<filter id="filter1_d_176_3000" x="37.9996" y="535.999" width="1011.33" height="1192" filterUnits="userSpaceOnUse" color-interpolation-filters="sRGB">
<feFlood flood-opacity="0" result="BackgroundImageFix"/>
<feColorMatrix in="SourceAlpha" type="matrix" values="0 0 0 0 0 0 0 0 0 0 0 0 0 0 0 0 0 0 127 0" result="hardAlpha"/>
<feOffset/>
<feGaussianBlur stdDeviation="89.3737"/>
<feColorMatrix type="matrix" values="0 0 0 0 0.129427 0 0 0 0 0.224219 0 0 0 0 0.4375 0 0 0 0.3 0"/>
<feBlend mode="normal" in2="BackgroundImageFix" result="effect1_dropShadow_176_3000"/>
<feBlend mode="normal" in="SourceGraphic" in2="effect1_dropShadow_176_3000" result="shape"/>
</filter>
<filter id="filter2_d_176_3000" x="19.0618" y="517.062" width="1049.21" height="1229.88" filterUnits="userSpaceOnUse" color-interpolation-filters="sRGB">
<feFlood flood-opacity="0" result="BackgroundImageFix"/>
<feColorMatrix in="SourceAlpha" type="matrix" values="0 0 0 0 0 0 0 0 0 0 0 0 0 0 0 0 0 0 127 0" result="hardAlpha"/>
<feOffset/>
<feGaussianBlur stdDeviation="89.3737"/>
<feColorMatrix type="matrix" values="0 0 0 0 0.129427 0 0 0 0 0.224219 0 0 0 0 0.4375 0 0 0 0.3 0"/>
<feBlend mode="normal" in2="BackgroundImageFix" result="effect1_dropShadow_176_3000"/>
<feBlend mode="normal" in="SourceGraphic" in2="effect1_dropShadow_176_3000" result="shape"/>
</filter>
<filter id="filter3_d_176_3000" x="0.124893" y="498.125" width="1087.08" height="1267.75" filterUnits="userSpaceOnUse" color-interpolation-filters="sRGB">
<feFlood flood-opacity="0" result="BackgroundImageFix"/>
<feColorMatrix in="SourceAlpha" type="matrix" values="0 0 0 0 0 0 0 0 0 0 0 0 0 0 0 0 0 0 127 0" result="hardAlpha"/>
<feOffset/>
<feGaussianBlur stdDeviation="89.3737"/>
<feColorMatrix type="matrix" values="0 0 0 0 0.129427 0 0 0 0 0.224219 0 0 0 0 0.4375 0 0 0 0.3 0"/>
<feBlend mode="normal" in2="BackgroundImageFix" result="effect1_dropShadow_176_3000"/>
<feBlend mode="normal" in="SourceGraphic" in2="effect1_dropShadow_176_3000" result="shape"/>
</filter>
<filter id="filter4_d_176_3000" x="-18.8121" y="479.188" width="1124.96" height="1305.63" filterUnits="userSpaceOnUse" color-interpolation-filters="sRGB">
<feFlood flood-opacity="0" result="BackgroundImageFix"/>
<feColorMatrix in="SourceAlpha" type="matrix" values="0 0 0 0 0 0 0 0 0 0 0 0 0 0 0 0 0 0 127 0" result="hardAlpha"/>
<feOffset/>
<feGaussianBlur stdDeviation="89.3737"/>
<feColorMatrix type="matrix" values="0 0 0 0 0.129427 0 0 0 0 0.224219 0 0 0 0 0.4375 0 0 0 0.3 0"/>
<feBlend mode="normal" in2="BackgroundImageFix" result="effect1_dropShadow_176_3000"/>
<feBlend mode="normal" in="SourceGraphic" in2="effect1_dropShadow_176_3000" result="shape"/>
</filter>
<filter id="filter5_d_176_3000" x="-37.7491" y="460.25" width="1162.83" height="1343.5" filterUnits="userSpaceOnUse" color-interpolation-filters="sRGB">
<feFlood flood-opacity="0" result="BackgroundImageFix"/>
<feColorMatrix in="SourceAlpha" type="matrix" values="0 0 0 0 0 0 0 0 0 0 0 0 0 0 0 0 0 0 127 0" result="hardAlpha"/>
<feOffset/>
<feGaussianBlur stdDeviation="89.3737"/>
<feColorMatrix type="matrix" values="0 0 0 0 0.129427 0 0 0 0 0.224219 0 0 0 0 0.4375 0 0 0 0.3 0"/>
<feBlend mode="normal" in2="BackgroundImageFix" result="effect1_dropShadow_176_3000"/>
<feBlend mode="normal" in="SourceGraphic" in2="effect1_dropShadow_176_3000" result="shape"/>
</filter>
<filter id="filter6_d_176_3000" x="-56.6869" y="441.313" width="1200.71" height="1381.37" filterUnits="userSpaceOnUse" color-interpolation-filters="sRGB">
<feFlood flood-opacity="0" result="BackgroundImageFix"/>
<feColorMatrix in="SourceAlpha" type="matrix" values="0 0 0 0 0 0 0 0 0 0 0 0 0 0 0 0 0 0 127 0" result="hardAlpha"/>
<feOffset/>
<feGaussianBlur stdDeviation="89.3737"/>
<feColorMatrix type="matrix" values="0 0 0 0 0.129427 0 0 0 0 0.224219 0 0 0 0 0.4375 0 0 0 0.3 0"/>
<feBlend mode="normal" in2="BackgroundImageFix" result="effect1_dropShadow_176_3000"/>
<feBlend mode="normal" in="SourceGraphic" in2="effect1_dropShadow_176_3000" result="shape"/>
</filter>
<filter id="filter7_d_176_3000" x="-75.6247" y="422.376" width="1238.58" height="1419.25" filterUnits="userSpaceOnUse" color-interpolation-filters="sRGB">
<feFlood flood-opacity="0" result="BackgroundImageFix"/>
<feColorMatrix in="SourceAlpha" type="matrix" values="0 0 0 0 0 0 0 0 0 0 0 0 0 0 0 0 0 0 127 0" result="hardAlpha"/>
<feOffset/>
<feGaussianBlur stdDeviation="89.3737"/>
<feColorMatrix type="matrix" values="0 0 0 0 0.129427 0 0 0 0 0.224219 0 0 0 0 0.4375 0 0 0 0.3 0"/>
<feBlend mode="normal" in2="BackgroundImageFix" result="effect1_dropShadow_176_3000"/>
<feBlend mode="normal" in="SourceGraphic" in2="effect1_dropShadow_176_3000" result="shape"/>
</filter>
<filter id="filter8_d_176_3000" x="-94.5608" y="403.439" width="1276.45" height="1457.12" filterUnits="userSpaceOnUse" color-interpolation-filters="sRGB">
<feFlood flood-opacity="0" result="BackgroundImageFix"/>
<feColorMatrix in="SourceAlpha" type="matrix" values="0 0 0 0 0 0 0 0 0 0 0 0 0 0 0 0 0 0 127 0" result="hardAlpha"/>
<feOffset/>
<feGaussianBlur stdDeviation="89.3737"/>
<feColorMatrix type="matrix" values="0 0 0 0 0.129427 0 0 0 0 0.224219 0 0 0 0 0.4375 0 0 0 0.3 0"/>
<feBlend mode="normal" in2="BackgroundImageFix" result="effect1_dropShadow_176_3000"/>
<feBlend mode="normal" in="SourceGraphic" in2="effect1_dropShadow_176_3000" result="shape"/>
</filter>
<filter id="filter9_d_176_3000" x="-113.499" y="384.501" width="1314.33" height="1495" filterUnits="userSpaceOnUse" color-interpolation-filters="sRGB">
<feFlood flood-opacity="0" result="BackgroundImageFix"/>
<feColorMatrix in="SourceAlpha" type="matrix" values="0 0 0 0 0 0 0 0 0 0 0 0 0 0 0 0 0 0 127 0" result="hardAlpha"/>
<feOffset/>
<feGaussianBlur stdDeviation="89.3737"/>
<feColorMatrix type="matrix" values="0 0 0 0 0.129427 0 0 0 0 0.224219 0 0 0 0 0.4375 0 0 0 0.3 0"/>
<feBlend mode="normal" in2="BackgroundImageFix" result="effect1_dropShadow_176_3000"/>
<feBlend mode="normal" in="SourceGraphic" in2="effect1_dropShadow_176_3000" result="shape"/>
</filter>
<filter id="filter10_d_176_3000" x="-132.436" y="365.564" width="1352.2" height="1532.87" filterUnits="userSpaceOnUse" color-interpolation-filters="sRGB">
<feFlood flood-opacity="0" result="BackgroundImageFix"/>
<feColorMatrix in="SourceAlpha" type="matrix" values="0 0 0 0 0 0 0 0 0 0 0 0 0 0 0 0 0 0 127 0" result="hardAlpha"/>
<feOffset/>
<feGaussianBlur stdDeviation="89.3737"/>
<feColorMatrix type="matrix" values="0 0 0 0 0.129427 0 0 0 0 0.224219 0 0 0 0 0.4375 0 0 0 0.3 0"/>
<feBlend mode="normal" in2="BackgroundImageFix" result="effect1_dropShadow_176_3000"/>
<feBlend mode="normal" in="SourceGraphic" in2="effect1_dropShadow_176_3000" result="shape"/>
</filter>
<filter id="filter11_d_176_3000" x="-151.373" y="346.627" width="1390.08" height="1570.75" filterUnits="userSpaceOnUse" color-interpolation-filters="sRGB">
<feFlood flood-opacity="0" result="BackgroundImageFix"/>
<feColorMatrix in="SourceAlpha" type="matrix" values="0 0 0 0 0 0 0 0 0 0 0 0 0 0 0 0 0 0 127 0" result="hardAlpha"/>
<feOffset/>
<feGaussianBlur stdDeviation="89.3737"/>
<feColorMatrix type="matrix" values="0 0 0 0 0.129427 0 0 0 0 0.224219 0 0 0 0 0.4375 0 0 0 0.3 0"/>
<feBlend mode="normal" in2="BackgroundImageFix" result="effect1_dropShadow_176_3000"/>
<feBlend mode="normal" in="SourceGraphic" in2="effect1_dropShadow_176_3000" result="shape"/>
</filter>
<filter id="filter12_d_176_3000" x="-170.31" y="327.69" width="1427.95" height="1608.62" filterUnits="userSpaceOnUse" color-interpolation-filters="sRGB">
<feFlood flood-opacity="0" result="BackgroundImageFix"/>
<feColorMatrix in="SourceAlpha" type="matrix" values="0 0 0 0 0 0 0 0 0 0 0 0 0 0 0 0 0 0 127 0" result="hardAlpha"/>
<feOffset/>
<feGaussianBlur stdDeviation="89.3737"/>
<feColorMatrix type="matrix" values="0 0 0 0 0.129427 0 0 0 0 0.224219 0 0 0 0 0.4375 0 0 0 0.3 0"/>
<feBlend mode="normal" in2="BackgroundImageFix" result="effect1_dropShadow_176_3000"/>
<feBlend mode="normal" in="SourceGraphic" in2="effect1_dropShadow_176_3000" result="shape"/>
</filter>
<filter id="filter13_d_176_3000" x="-189.247" y="308.753" width="1465.83" height="1646.5" filterUnits="userSpaceOnUse" color-interpolation-filters="sRGB">
<feFlood flood-opacity="0" result="BackgroundImageFix"/>
<feColorMatrix in="SourceAlpha" type="matrix" values="0 0 0 0 0 0 0 0 0 0 0 0 0 0 0 0 0 0 127 0" result="hardAlpha"/>
<feOffset/>
<feGaussianBlur stdDeviation="89.3737"/>
<feColorMatrix type="matrix" values="0 0 0 0 0.129427 0 0 0 0 0.224219 0 0 0 0 0.4375 0 0 0 0.3 0"/>
<feBlend mode="normal" in2="BackgroundImageFix" result="effect1_dropShadow_176_3000"/>
<feBlend mode="normal" in="SourceGraphic" in2="effect1_dropShadow_176_3000" result="shape"/>
</filter>
</defs>
</svg>
