<svg width="353" height="220" viewBox="0 0 353 220" fill="none" xmlns="http://www.w3.org/2000/svg">
<g filter="url(#filter0_d_957_774)">
<rect x="4.72461" y="-0.000976562" width="344" height="212" rx="29" fill="url(#paint0_linear_957_774)"/>
<path fill-rule="evenodd" clip-rule="evenodd" d="M52.3496 71.8051C52.7896 70.8051 53.4696 66.4251 53.7696 64.9551C54.1596 63.0551 54.6296 59.7051 55.2696 58.1251C55.2596 58.1051 55.2496 58.0451 55.2496 58.0651L55.2296 57.9251C55.2296 57.9051 55.2296 57.8651 55.2296 57.8451L57.8596 44.7851C58.1996 43.0151 58.3396 41.8851 59.8296 41.2251C61.0796 40.6751 74.1296 40.5551 77.7996 41.9051C78.1596 42.0351 78.4896 42.1851 78.7896 42.3351C79.3496 42.6251 79.4196 42.6451 79.5496 43.0451L79.6696 42.8151C82.2296 33.2751 77.2796 28.9051 68.4996 28.1851C64.2996 27.8451 59.2396 28.0751 54.9496 28.0751C52.5296 28.0751 51.0296 28.2451 50.1396 30.0351C49.4696 31.3851 43.1996 63.8551 41.9996 69.6451C41.8196 70.5251 41.3296 71.8551 42.3596 72.1351L49.1896 72.1851C50.3296 72.1851 51.6296 72.3951 52.3396 71.8151L52.3496 71.8051Z" fill="#002C89"/>
<path fill-rule="evenodd" clip-rule="evenodd" d="M79.559 43.0354C79.269 45.3954 76.529 49.6054 75.049 50.9754C71.729 54.0454 67.939 55.6954 63.169 56.2554C58.819 56.7654 56.979 55.6854 55.279 58.1354C54.639 59.7154 54.169 63.0654 53.779 64.9654C53.479 66.4354 52.789 70.8154 52.359 71.8154C52.439 72.9854 51.349 75.4554 51.639 76.6554C52.059 77.2854 59.699 77.0054 59.929 76.8954C60.589 76.4154 60.619 74.9854 60.799 74.0954C61.229 71.9654 62.159 65.9054 63.039 64.9554C64.699 63.1754 68.999 65.3154 75.359 62.1054C82.809 58.3554 86.159 46.7554 79.689 42.8154L79.569 43.0454L79.559 43.0354Z" fill="#0099DF"/>
<path fill-rule="evenodd" clip-rule="evenodd" d="M55.2705 58.1248C56.9705 55.6748 58.8205 56.7548 63.1605 56.2448C67.9405 55.6848 71.7205 54.0448 75.0405 50.9648C76.5205 49.5948 79.2705 45.3848 79.5505 43.0248C79.4205 42.6248 79.3505 42.6048 78.7905 42.3148C78.4905 42.1648 78.1605 42.0148 77.8005 41.8848C74.1205 40.5348 61.0705 40.6548 59.8305 41.2048C58.3405 41.8648 58.2005 42.9948 57.8605 44.7648L55.2305 57.8248C55.2305 57.8448 55.2305 57.8948 55.2305 57.9048L55.2505 58.0448C55.2505 58.0348 55.2605 58.0848 55.2705 58.1048V58.1248Z" fill="#001F69" stroke="#3E4095" stroke-width="0.0762"/>
<path opacity="0.0714286" fill-rule="evenodd" clip-rule="evenodd" d="M238.512 67.3538C252.45 69.2111 267.139 71.4355 276.794 78.9008C286.718 86.5748 293.387 97.5352 290.804 107.788C288.353 117.518 272.7 121.71 264.071 129.402C256.79 135.891 254.534 145.273 244.306 149.233C233.532 153.405 220.294 153.345 208.465 150.933C196.789 148.552 187.144 142.865 179.597 136.037C172.163 129.311 165.48 121.345 166.338 112.817C167.158 104.674 178.526 99.7531 183.968 92.5996C190.023 84.6407 189.309 73.5767 199.933 68.659C210.991 63.5412 225.52 65.6225 238.512 67.3538Z" stroke="#BCD1DA" stroke-opacity="0.37"/>
<path opacity="0.142857" fill-rule="evenodd" clip-rule="evenodd" d="M237.228 70.5867C250.678 73.4108 264.823 76.6546 273.461 84.7986C282.34 93.1704 287.669 104.608 284.013 114.697C280.543 124.272 264.749 127.388 255.451 134.493C247.606 140.489 244.365 149.729 233.911 152.987C222.898 156.42 209.936 155.444 198.614 152.21C187.436 149.018 178.613 142.656 171.97 135.295C165.426 128.045 159.754 119.605 161.531 111.124C163.229 103.026 174.906 98.8842 181.023 92.0967C187.828 84.5449 188.344 73.4152 199.292 69.2252C210.686 64.8648 224.69 67.9541 237.228 70.5867Z" stroke="#BCD1DA" stroke-opacity="0.37"/>
<path opacity="0.214286" fill-rule="evenodd" clip-rule="evenodd" d="M235.604 73.6288C248.474 77.3761 261.979 81.5911 269.543 90.3332C277.319 99.3197 281.275 111.132 276.574 120.979C272.113 130.324 256.287 132.36 246.387 138.836C238.034 144.299 233.834 153.324 223.226 155.87C212.052 158.551 199.455 156.687 188.716 152.676C178.114 148.715 170.171 141.744 164.475 133.922C158.864 126.218 154.24 117.383 156.921 109.017C159.481 101.028 171.385 97.6825 178.133 91.3083C185.64 84.2163 187.377 73.1128 198.572 69.6689C210.223 66.085 223.607 70.1357 235.604 73.6288Z" stroke="#BCD1DA" stroke-opacity="0.37"/>
<path opacity="0.285714" fill-rule="evenodd" clip-rule="evenodd" d="M233.666 76.4546C245.871 81.0752 258.647 86.2064 265.091 95.4619C271.715 104.976 274.277 117.057 268.568 126.585C263.15 135.628 247.401 136.591 236.968 142.395C228.166 147.291 223.04 156.032 212.353 157.858C201.094 159.782 188.947 157.063 178.862 152.323C168.905 147.643 161.892 140.133 157.178 131.925C152.534 123.84 148.984 114.691 152.547 106.506C155.949 98.6907 167.998 96.1525 175.327 90.2359C183.48 83.653 186.423 72.667 197.788 69.9825C209.614 67.1888 222.289 72.1476 233.666 76.4546Z" stroke="#BCD1DA" stroke-opacity="0.37"/>
<path opacity="0.357143" fill-rule="evenodd" clip-rule="evenodd" d="M231.445 79.0449C242.907 84.4829 254.871 90.4695 260.158 100.151C265.593 110.102 266.754 122.345 260.081 131.481C253.748 140.15 238.182 140.053 227.29 145.149C218.101 149.449 212.089 157.837 201.394 158.942C190.127 160.106 178.509 156.572 169.141 151.157C159.893 145.811 153.851 137.836 150.144 129.317C146.493 120.927 144.034 111.547 148.45 103.61C152.666 96.0302 164.777 94.3053 172.634 88.8871C181.377 82.8589 185.497 72.0807 196.953 70.1635C208.875 68.1683 220.761 73.9759 231.445 79.0449Z" stroke="#BCD1DA" stroke-opacity="0.37"/>
<path opacity="0.428571" fill-rule="evenodd" clip-rule="evenodd" d="M228.97 81.3797C239.618 87.5741 250.699 94.3498 254.803 104.366C259.022 114.663 258.783 126.96 251.199 135.632C244.001 143.861 228.719 142.723 217.445 147.081C207.933 150.758 201.082 158.728 190.45 159.115C179.25 159.523 168.234 155.219 159.64 149.187C151.156 143.233 146.119 134.868 143.436 126.118C140.794 117.499 139.434 107.973 144.666 100.346C149.661 93.0626 161.754 92.1512 170.083 87.2689C179.351 81.8369 184.613 71.3548 196.083 70.2077C208.021 69.0138 219.044 75.6055 228.97 81.3797Z" stroke="#BCD1DA" stroke-opacity="0.37"/>
<path opacity="0.5" fill-rule="evenodd" clip-rule="evenodd" d="M226.278 83.4417C236.05 90.327 246.182 97.8207 249.088 108.081C252.076 118.627 250.454 130.872 242.018 139.013C234.011 146.739 219.111 144.585 207.533 148.179C197.764 151.211 190.128 158.701 179.629 158.379C168.568 158.04 158.221 153.015 150.45 146.428C142.779 139.927 138.769 131.251 137.118 122.348C135.491 113.579 135.229 103.991 141.234 96.7351C146.969 89.8063 158.963 89.7032 167.705 85.3904C177.431 80.592 183.789 70.4917 195.198 70.1121C207.072 69.7171 217.168 77.0235 226.278 83.4417Z" stroke="#BCD1DA" stroke-opacity="0.37"/>
<path opacity="0.571429" fill-rule="evenodd" clip-rule="evenodd" d="M223.401 85.218C232.244 92.7248 241.373 100.861 243.076 111.272C244.827 121.974 241.849 134.061 232.626 141.607C223.873 148.769 209.449 145.634 197.646 148.443C187.688 150.813 179.326 157.765 169.027 156.746C158.178 155.673 148.559 149.98 141.653 142.905C134.835 135.92 131.866 127.013 131.245 118.037C130.634 109.196 131.457 99.6297 138.187 92.8029C144.614 86.2839 156.432 86.9786 165.524 83.2647C175.64 79.1327 183.037 69.4965 194.311 69.877C206.044 70.273 215.158 78.2206 223.401 85.218Z" stroke="#BCD1DA" stroke-opacity="0.37"/>
<path opacity="0.642857" fill-rule="evenodd" clip-rule="evenodd" d="M220.375 86.6987C228.244 94.754 236.323 103.455 236.829 113.924C237.349 124.687 233.054 136.512 223.117 143.405C213.685 149.947 199.825 145.869 187.879 147.879C177.8 149.575 168.777 155.933 158.744 154.235C148.174 152.446 139.337 146.144 133.328 138.646C127.397 131.245 125.474 122.187 125.873 113.217C126.266 104.382 128.154 94.9205 135.554 88.5771C142.621 82.5197 154.188 83.9967 163.565 80.9069C173.998 77.4693 182.372 68.3757 193.438 69.5039C204.954 70.6779 213.04 79.1899 220.375 86.6987Z" stroke="#BCD1DA" stroke-opacity="0.37"/>
<path opacity="0.714286" fill-rule="evenodd" clip-rule="evenodd" d="M217.234 87.8743C224.092 96.4028 231.084 105.587 230.409 116.023C229.716 126.752 224.154 138.215 213.579 144.402C203.543 150.273 190.329 145.297 178.321 146.498C168.189 147.511 158.577 153.227 148.871 150.871C138.646 148.389 130.637 141.538 125.551 133.687C120.53 125.937 119.65 116.81 121.049 107.924C122.427 99.1707 125.351 89.8956 133.361 84.086C141.01 78.5383 152.254 80.7771 161.849 78.3321C172.525 75.6119 181.804 67.1346 192.593 68.9933C203.82 70.9277 210.841 79.9244 217.234 87.8743Z" stroke="#BCD1DA" stroke-opacity="0.37"/>
<path opacity="0.785714" fill-rule="evenodd" clip-rule="evenodd" d="M214.014 88.7382C219.834 97.6626 225.714 107.246 223.884 117.56C222.003 128.162 215.234 139.167 204.104 144.599C193.542 149.755 181.052 143.931 169.062 144.318C158.947 144.645 148.82 149.675 139.5 146.686C129.683 143.537 122.539 136.201 118.393 128.068C114.3 120.04 114.448 110.921 116.82 102.195C119.157 93.5994 123.077 84.5892 131.633 79.3595C139.803 74.3656 150.654 77.3409 160.399 75.557C171.242 73.5721 181.348 65.7796 191.792 68.3472C202.661 71.0193 208.589 80.4193 214.014 88.7382Z" stroke="#BCD1DA" stroke-opacity="0.37"/>
<path opacity="0.857143" fill-rule="evenodd" clip-rule="evenodd" d="M210.754 89.2885C215.518 98.5302 220.267 108.43 217.319 118.533C214.288 128.918 206.382 139.374 194.784 144.01C183.777 148.409 172.08 141.792 160.191 141.367C150.16 141.008 139.597 145.313 130.719 141.721C121.367 137.936 115.119 130.18 111.923 121.836C108.767 113.599 109.922 104.567 113.23 96.0749C116.49 87.7097 121.36 79.0401 130.392 74.4316C139.017 70.031 149.41 73.7132 159.236 72.6018C170.17 71.3651 181.017 64.3201 191.052 67.5706C201.496 70.9533 206.314 80.6739 210.754 89.2885Z" stroke="#BCD1DA" stroke-opacity="0.37"/>
<path opacity="0.928571" fill-rule="evenodd" clip-rule="evenodd" d="M207.487 89.526C211.185 99.0058 214.797 109.136 210.774 118.945C206.64 129.027 197.677 138.847 185.701 142.65C174.335 146.259 163.494 138.907 151.785 137.677C141.905 136.639 130.989 140.185 122.604 136.022C113.772 131.636 108.444 123.527 106.197 115.043C103.979 106.668 106.11 97.7993 110.313 89.6112C114.452 81.5459 120.217 73.2885 129.653 69.3378C138.663 65.5652 148.536 69.9205 158.375 69.4882C169.321 69.0073 180.819 62.7663 190.385 66.6695C200.341 70.7315 204.041 80.6895 207.487 89.526Z" stroke="#BCD1DA" stroke-opacity="0.37"/>
<path fill-rule="evenodd" clip-rule="evenodd" d="M204.248 89.4521C206.879 99.0909 209.354 109.368 204.312 118.801C199.129 128.497 189.198 137.602 176.937 140.543C165.301 143.334 155.372 135.311 143.92 133.287C134.258 131.58 123.074 134.339 115.23 129.641C106.966 124.692 102.574 116.298 101.27 107.745C99.9828 99.3016 103.052 90.6685 108.097 82.8518C113.066 75.1523 119.665 67.3746 129.429 64.1127C138.752 60.9979 148.048 65.9885 157.828 66.2374C168.71 66.5143 180.762 61.127 189.804 65.649C199.214 70.3551 201.795 80.4673 204.248 89.4521Z" stroke="#BCD1DA" stroke-opacity="0.37"/>
<path d="M147.157 123.999V102.047H158.165C159.786 102.047 161.119 102.335 162.165 102.911C163.231 103.487 164.031 104.298 164.565 105.343C165.098 106.388 165.365 107.636 165.365 109.087C165.365 110.516 165.087 111.764 164.533 112.831C163.978 113.898 163.146 114.73 162.037 115.327C160.949 115.903 159.583 116.191 157.941 116.191H151.317V123.999H147.157ZM151.317 112.639H157.813C158.879 112.639 159.701 112.33 160.277 111.711C160.874 111.071 161.173 110.196 161.173 109.087C161.173 108.34 161.045 107.711 160.789 107.199C160.533 106.687 160.159 106.292 159.669 106.015C159.178 105.738 158.559 105.599 157.813 105.599H151.317V112.639ZM172.25 124.383C171.78 124.383 171.236 124.319 170.618 124.191C170.02 124.084 169.434 123.871 168.858 123.551C168.303 123.231 167.844 122.762 167.482 122.143C167.119 121.503 166.938 120.671 166.938 119.647C166.938 118.495 167.194 117.546 167.706 116.799C168.218 116.031 168.932 115.434 169.85 115.007C170.788 114.559 171.898 114.25 173.178 114.079C174.479 113.887 175.898 113.791 177.434 113.791V112.415C177.434 111.924 177.359 111.487 177.21 111.103C177.06 110.719 176.783 110.42 176.378 110.207C175.994 109.972 175.407 109.855 174.618 109.855C173.828 109.855 173.21 109.951 172.762 110.143C172.314 110.335 172.004 110.57 171.834 110.847C171.663 111.124 171.578 111.412 171.578 111.711V112.159H167.802C167.78 112.052 167.77 111.946 167.77 111.839C167.77 111.732 167.77 111.604 167.77 111.455C167.77 110.495 168.058 109.663 168.634 108.959C169.21 108.255 170.01 107.722 171.034 107.359C172.058 106.975 173.242 106.783 174.586 106.783C176.122 106.783 177.38 106.996 178.362 107.423C179.364 107.85 180.111 108.458 180.602 109.247C181.092 110.036 181.338 110.996 181.338 112.127V120.063C181.338 120.468 181.455 120.756 181.69 120.927C181.924 121.098 182.18 121.183 182.458 121.183H183.482V123.871C183.268 123.956 182.959 124.052 182.554 124.159C182.148 124.287 181.647 124.351 181.05 124.351C180.495 124.351 179.994 124.255 179.546 124.063C179.119 123.892 178.756 123.636 178.458 123.295C178.159 122.954 177.946 122.548 177.818 122.079H177.626C177.263 122.527 176.826 122.932 176.314 123.295C175.823 123.636 175.236 123.903 174.554 124.095C173.892 124.287 173.124 124.383 172.25 124.383ZM173.434 121.183C174.074 121.183 174.639 121.087 175.13 120.895C175.642 120.703 176.058 120.436 176.378 120.095C176.719 119.754 176.975 119.338 177.146 118.847C177.338 118.356 177.434 117.823 177.434 117.247V116.479C176.26 116.479 175.172 116.554 174.17 116.703C173.188 116.852 172.399 117.13 171.802 117.535C171.226 117.94 170.938 118.516 170.938 119.263C170.938 119.647 171.023 119.988 171.194 120.287C171.386 120.564 171.663 120.788 172.026 120.959C172.41 121.108 172.879 121.183 173.434 121.183ZM187.951 129.823C187.162 129.823 186.522 129.759 186.031 129.631C185.54 129.524 185.263 129.46 185.199 129.439V126.655H186.991C187.439 126.655 187.887 126.538 188.335 126.303C188.783 126.068 189.188 125.748 189.551 125.343C189.914 124.938 190.18 124.49 190.351 123.999L183.791 107.167H187.887L191.023 115.231C191.172 115.594 191.322 116.052 191.471 116.607C191.642 117.162 191.812 117.738 191.983 118.335C192.154 118.911 192.292 119.434 192.399 119.903H192.559C192.644 119.583 192.74 119.22 192.847 118.815C192.954 118.41 193.06 117.994 193.167 117.567C193.295 117.14 193.423 116.724 193.551 116.319C193.679 115.914 193.786 115.562 193.871 115.263L196.431 107.167H200.399L194.767 123.135C194.447 124.031 194.084 124.884 193.679 125.695C193.295 126.506 192.836 127.22 192.303 127.839C191.791 128.458 191.172 128.938 190.447 129.279C189.743 129.642 188.911 129.823 187.951 129.823ZM203 123.999V102.047H214.008C215.63 102.047 216.963 102.335 218.008 102.911C219.075 103.487 219.875 104.298 220.408 105.343C220.942 106.388 221.208 107.636 221.208 109.087C221.208 110.516 220.931 111.764 220.376 112.831C219.822 113.898 218.99 114.73 217.88 115.327C216.792 115.903 215.427 116.191 213.784 116.191H207.16V123.999H203ZM207.16 112.639H213.656C214.723 112.639 215.544 112.33 216.12 111.711C216.718 111.071 217.016 110.196 217.016 109.087C217.016 108.34 216.888 107.711 216.632 107.199C216.376 106.687 216.003 106.292 215.512 106.015C215.022 105.738 214.403 105.599 213.656 105.599H207.16V112.639ZM228.093 124.383C227.624 124.383 227.08 124.319 226.461 124.191C225.864 124.084 225.277 123.871 224.701 123.551C224.147 123.231 223.688 122.762 223.325 122.143C222.963 121.503 222.781 120.671 222.781 119.647C222.781 118.495 223.037 117.546 223.549 116.799C224.061 116.031 224.776 115.434 225.693 115.007C226.632 114.559 227.741 114.25 229.021 114.079C230.323 113.887 231.741 113.791 233.277 113.791V112.415C233.277 111.924 233.203 111.487 233.053 111.103C232.904 110.719 232.627 110.42 232.221 110.207C231.837 109.972 231.251 109.855 230.461 109.855C229.672 109.855 229.053 109.951 228.605 110.143C228.157 110.335 227.848 110.57 227.677 110.847C227.507 111.124 227.421 111.412 227.421 111.711V112.159H223.645C223.624 112.052 223.613 111.946 223.613 111.839C223.613 111.732 223.613 111.604 223.613 111.455C223.613 110.495 223.901 109.663 224.477 108.959C225.053 108.255 225.853 107.722 226.877 107.359C227.901 106.975 229.085 106.783 230.429 106.783C231.965 106.783 233.224 106.996 234.205 107.423C235.208 107.85 235.955 108.458 236.445 109.247C236.936 110.036 237.181 110.996 237.181 112.127V120.063C237.181 120.468 237.299 120.756 237.533 120.927C237.768 121.098 238.024 121.183 238.301 121.183H239.325V123.871C239.112 123.956 238.803 124.052 238.397 124.159C237.992 124.287 237.491 124.351 236.893 124.351C236.339 124.351 235.837 124.255 235.389 124.063C234.963 123.892 234.6 123.636 234.301 123.295C234.003 122.954 233.789 122.548 233.661 122.079H233.469C233.107 122.527 232.669 122.932 232.157 123.295C231.667 123.636 231.08 123.903 230.397 124.095C229.736 124.287 228.968 124.383 228.093 124.383ZM229.277 121.183C229.917 121.183 230.483 121.087 230.973 120.895C231.485 120.703 231.901 120.436 232.221 120.095C232.563 119.754 232.819 119.338 232.989 118.847C233.181 118.356 233.277 117.823 233.277 117.247V116.479C232.104 116.479 231.016 116.554 230.013 116.703C229.032 116.852 228.243 117.13 227.645 117.535C227.069 117.94 226.781 118.516 226.781 119.263C226.781 119.647 226.867 119.988 227.037 120.287C227.229 120.564 227.507 120.788 227.869 120.959C228.253 121.108 228.723 121.183 229.277 121.183ZM241.555 123.999V100.863H245.459V123.999H241.555Z" fill="white"/>
<path d="M165.101 68.999V58.023H170.525C171.282 58.023 171.911 58.167 172.413 58.455C172.914 58.7324 173.287 59.1217 173.533 59.623C173.789 60.1244 173.917 60.7057 173.917 61.367C173.917 62.039 173.778 62.6364 173.501 63.159C173.223 63.671 172.829 64.071 172.317 64.359C171.815 64.647 171.213 64.791 170.509 64.791H166.621V68.999H165.101ZM166.621 63.479H170.413C171.01 63.479 171.485 63.2924 171.837 62.919C172.199 62.5457 172.381 62.0337 172.381 61.383C172.381 60.9457 172.306 60.5777 172.157 60.279C172.007 59.9804 171.789 59.751 171.501 59.591C171.213 59.4204 170.85 59.335 170.413 59.335H166.621V63.479ZM177.425 69.191C177.116 69.191 176.806 69.1537 176.497 69.079C176.188 69.0044 175.9 68.8817 175.633 68.711C175.366 68.5404 175.153 68.3057 174.993 68.007C174.833 67.6977 174.753 67.3137 174.753 66.855C174.753 66.279 174.892 65.8044 175.169 65.431C175.446 65.0577 175.83 64.7697 176.321 64.567C176.822 64.3537 177.414 64.2097 178.097 64.135C178.78 64.0497 179.521 64.007 180.321 64.007V63.047C180.321 62.7377 180.268 62.471 180.161 62.247C180.054 62.023 179.862 61.8524 179.585 61.735C179.318 61.607 178.934 61.543 178.433 61.543C177.953 61.543 177.569 61.607 177.281 61.735C177.004 61.8524 176.806 62.007 176.689 62.199C176.582 62.391 176.529 62.6044 176.529 62.839V63.079H175.169C175.158 63.0257 175.153 62.9724 175.153 62.919C175.153 62.8657 175.153 62.8017 175.153 62.727C175.153 62.215 175.292 61.7884 175.569 61.447C175.857 61.095 176.257 60.8337 176.769 60.663C177.281 60.4817 177.868 60.391 178.529 60.391C179.233 60.391 179.82 60.4924 180.289 60.695C180.769 60.8977 181.126 61.1857 181.361 61.559C181.606 61.9324 181.729 62.3804 181.729 62.903V67.463C181.729 67.6657 181.777 67.8097 181.873 67.895C181.969 67.9697 182.086 68.007 182.225 68.007H182.849V68.935C182.7 68.999 182.534 69.0524 182.353 69.095C182.172 69.1484 181.964 69.175 181.729 69.175C181.452 69.175 181.222 69.1164 181.041 68.999C180.86 68.8924 180.721 68.743 180.625 68.551C180.529 68.3484 180.465 68.1244 180.433 67.879H180.321C180.129 68.1457 179.884 68.3804 179.585 68.583C179.297 68.775 178.972 68.9244 178.609 69.031C178.246 69.1377 177.852 69.191 177.425 69.191ZM177.777 68.007C178.118 68.007 178.438 67.9537 178.737 67.847C179.046 67.7404 179.318 67.591 179.553 67.399C179.788 67.1964 179.974 66.9564 180.113 66.679C180.252 66.4017 180.321 66.0977 180.321 65.767V65.063C179.457 65.063 178.721 65.111 178.113 65.207C177.505 65.303 177.036 65.4737 176.705 65.719C176.385 65.9644 176.225 66.311 176.225 66.759C176.225 67.047 176.289 67.2817 176.417 67.463C176.545 67.6444 176.726 67.783 176.961 67.879C177.196 67.9644 177.468 68.007 177.777 68.007ZM184.752 71.911C184.496 71.911 184.272 71.8897 184.08 71.847C183.898 71.815 183.776 71.7937 183.712 71.783V70.759H184.416C184.672 70.759 184.922 70.7057 185.168 70.599C185.413 70.4924 185.642 70.311 185.856 70.055C186.069 69.799 186.25 69.447 186.4 68.999L183.136 60.583H184.608L186.288 64.919C186.362 65.1217 186.448 65.3724 186.544 65.671C186.65 65.959 186.752 66.2577 186.848 66.567C186.954 66.8764 187.04 67.1484 187.104 67.383H187.2C187.242 67.2124 187.296 67.0204 187.36 66.807C187.424 66.5937 187.488 66.375 187.552 66.151C187.626 65.9164 187.696 65.6977 187.76 65.495C187.834 65.2817 187.893 65.095 187.936 64.935L189.36 60.583H190.784L187.936 68.759C187.776 69.2177 187.6 69.639 187.408 70.023C187.216 70.4177 187.002 70.7537 186.768 71.031C186.533 71.3084 186.25 71.5217 185.92 71.671C185.589 71.831 185.2 71.911 184.752 71.911ZM197.054 68.999L194.51 60.583H195.966L197.246 65.207C197.31 65.431 197.369 65.6764 197.422 65.943C197.486 66.199 197.545 66.439 197.598 66.663C197.662 66.8764 197.705 67.0417 197.726 67.159H197.822C197.865 66.9564 197.913 66.727 197.966 66.471C198.03 66.215 198.083 65.9697 198.126 65.735C198.179 65.5004 198.222 65.319 198.254 65.191L199.406 60.583H200.926L202.094 65.191C202.137 65.3724 202.185 65.5857 202.238 65.831C202.291 66.0657 202.345 66.3004 202.398 66.535C202.462 66.7697 202.505 66.9777 202.526 67.159H202.622C202.665 66.9884 202.713 66.791 202.766 66.567C202.819 66.3324 202.878 66.0977 202.942 65.863C203.006 65.6177 203.065 65.4044 203.118 65.223L204.382 60.583H205.726L203.198 68.999H201.758L200.67 64.647C200.627 64.4444 200.574 64.2097 200.51 63.943C200.446 63.6657 200.382 63.3884 200.318 63.111C200.265 62.823 200.217 62.5724 200.174 62.359H200.078C200.057 62.519 200.019 62.7217 199.966 62.967C199.923 63.2124 199.87 63.4844 199.806 63.783C199.742 64.071 199.667 64.359 199.582 64.647L198.494 68.999H197.054ZM207 58.999V57.431H208.408V58.999H207ZM207 68.999V60.583H208.408V68.999H207ZM212.562 69.191C212.125 69.191 211.784 69.111 211.538 68.951C211.293 68.7804 211.117 68.5617 211.01 68.295C210.904 68.0177 210.85 67.7244 210.85 67.415V61.767H209.762V60.583H210.882L211.138 58.231H212.258V60.583H213.842V61.767H212.258V67.207C212.258 67.4737 212.306 67.6764 212.402 67.815C212.498 67.943 212.68 68.007 212.946 68.007H213.842V68.935C213.736 68.9884 213.608 69.031 213.458 69.063C213.309 69.095 213.154 69.1217 212.994 69.143C212.845 69.175 212.701 69.191 212.562 69.191ZM215.344 68.999V57.431H216.752V61.639H216.864C217.078 61.351 217.318 61.1164 217.584 60.935C217.851 60.7537 218.144 60.6204 218.464 60.535C218.795 60.439 219.152 60.391 219.536 60.391C220.07 60.391 220.534 60.4817 220.928 60.663C221.334 60.8444 221.648 61.1377 221.872 61.543C222.107 61.9484 222.224 62.4977 222.224 63.191V68.999H220.816V63.383C220.816 63.031 220.768 62.743 220.672 62.519C220.587 62.295 220.464 62.119 220.304 61.991C220.155 61.863 219.968 61.7724 219.744 61.719C219.531 61.6657 219.291 61.639 219.024 61.639C218.63 61.639 218.256 61.735 217.904 61.927C217.552 62.1084 217.27 62.3804 217.056 62.743C216.854 63.095 216.752 63.5324 216.752 64.055V68.999H215.344Z" fill="#F4F8FF"/>
</g>
<defs>
<filter id="filter0_d_957_774" x="0.724609" y="-0.000976562" width="352" height="220" filterUnits="userSpaceOnUse" color-interpolation-filters="sRGB">
<feFlood flood-opacity="0" result="BackgroundImageFix"/>
<feColorMatrix in="SourceAlpha" type="matrix" values="0 0 0 0 0 0 0 0 0 0 0 0 0 0 0 0 0 0 127 0" result="hardAlpha"/>
<feOffset dy="4"/>
<feGaussianBlur stdDeviation="2"/>
<feComposite in2="hardAlpha" operator="out"/>
<feColorMatrix type="matrix" values="0 0 0 0 0 0 0 0 0 0 0 0 0 0 0 0 0 0 0.25 0"/>
<feBlend mode="normal" in2="BackgroundImageFix" result="effect1_dropShadow_957_774"/>
<feBlend mode="normal" in="SourceGraphic" in2="effect1_dropShadow_957_774" result="shape"/>
</filter>
<linearGradient id="paint0_linear_957_774" x1="176.725" y1="-0.000976563" x2="176.725" y2="211.999" gradientUnits="userSpaceOnUse">
<stop stop-color="#BFCDFC" stop-opacity="0.59"/>
<stop offset="0.711458" stop-color="#2C28F2"/>
<stop offset="1" stop-color="#0400B1"/>
</linearGradient>
</defs>
</svg>
