<svg width="352" height="220" viewBox="0 0 352 220" fill="none" xmlns="http://www.w3.org/2000/svg">
<g filter="url(#filter0_d_957_729)">
<rect x="4" y="-0.000976562" width="344" height="212" rx="29" fill="url(#paint0_linear_957_729)"/>
<path opacity="0.0714286" fill-rule="evenodd" clip-rule="evenodd" d="M232.049 51.6316C246.522 53.5601 261.773 55.8698 271.798 63.6211C282.103 71.5892 289.027 82.9696 286.345 93.6151C283.8 103.718 267.547 108.071 258.587 116.057C251.028 122.795 248.685 132.537 238.065 136.649C226.878 140.98 213.133 140.918 200.851 138.413C188.727 135.941 178.713 130.036 170.877 122.946C163.158 115.962 156.219 107.692 157.11 98.8371C157.961 90.3817 169.765 85.2724 175.415 77.8448C181.702 69.581 180.961 58.093 191.993 52.9869C203.473 47.673 218.559 49.834 232.049 51.6316Z" stroke="#BCD1DA" stroke-opacity="0.37"/>
<path opacity="0.142857" fill-rule="evenodd" clip-rule="evenodd" d="M230.718 54.9894C244.683 57.9217 259.371 61.2898 268.339 69.7459C277.559 78.4384 283.092 90.3145 279.295 100.79C275.692 110.732 259.293 113.967 249.639 121.345C241.493 127.57 238.128 137.164 227.273 140.547C215.839 144.112 202.38 143.099 190.624 139.741C179.018 136.426 169.857 129.82 162.959 122.177C156.165 114.649 150.275 105.886 152.121 97.0804C153.883 88.6715 166.007 84.3711 172.359 77.3236C179.426 69.4825 179.961 57.9263 191.328 53.5758C203.159 49.0482 217.7 52.256 230.718 54.9894Z" stroke="#BCD1DA" stroke-opacity="0.37"/>
<path opacity="0.214286" fill-rule="evenodd" clip-rule="evenodd" d="M229.029 58.148C242.393 62.0389 256.415 66.4154 264.269 75.4924C272.343 84.8233 276.451 97.0879 271.569 107.312C266.937 117.015 250.505 119.13 240.225 125.853C231.552 131.526 227.191 140.897 216.177 143.54C204.575 146.325 191.496 144.389 180.345 140.224C169.337 136.111 161.089 128.873 155.175 120.752C149.349 112.752 144.547 103.579 147.332 94.8923C149.99 86.5972 162.35 83.1234 169.356 76.5049C177.151 69.1412 178.955 57.6122 190.579 54.0364C202.676 50.3151 216.573 54.5211 229.029 58.148Z" stroke="#BCD1DA" stroke-opacity="0.37"/>
<path opacity="0.285714" fill-rule="evenodd" clip-rule="evenodd" d="M227.017 61.0811C239.69 65.8787 252.955 71.2066 259.646 80.8167C266.523 90.6956 269.185 103.239 263.256 113.133C257.63 122.522 241.278 123.522 230.446 129.548C221.307 134.632 215.984 143.708 204.887 145.604C193.197 147.601 180.585 144.779 170.113 139.856C159.775 134.997 152.493 127.199 147.598 118.676C142.776 110.282 139.09 100.782 142.79 92.2842C146.322 84.1692 158.832 81.5338 166.442 75.3904C174.908 68.5553 177.964 57.1483 189.764 54.361C202.043 51.4602 215.204 56.6091 227.017 61.0811Z" stroke="#BCD1DA" stroke-opacity="0.37"/>
<path opacity="0.357143" fill-rule="evenodd" clip-rule="evenodd" d="M224.71 63.7706C236.611 69.4169 249.035 75.6329 254.524 85.685C260.167 96.018 261.372 108.73 254.444 118.215C247.868 127.217 231.705 127.116 220.397 132.408C210.856 136.872 204.613 145.582 193.508 146.729C181.809 147.938 169.746 144.269 160.019 138.646C150.417 133.095 144.143 124.814 140.295 115.969C136.504 107.257 133.951 97.5185 138.535 89.2768C142.913 81.4067 155.488 79.6157 163.647 73.9899C172.724 67.7307 177.002 56.5395 188.897 54.5488C201.276 52.4772 213.617 58.5073 224.71 63.7706Z" stroke="#BCD1DA" stroke-opacity="0.37"/>
<path opacity="0.428571" fill-rule="evenodd" clip-rule="evenodd" d="M222.14 66.1948C233.197 72.6265 244.702 79.6619 248.963 90.0621C253.344 100.753 253.096 113.521 245.221 122.526C237.748 131.071 221.88 129.888 210.174 134.413C200.298 138.231 193.184 146.506 182.145 146.909C170.515 147.333 159.077 142.863 150.154 136.601C141.345 130.418 136.115 121.733 133.329 112.647C130.586 103.698 129.174 93.807 134.606 85.8876C139.793 78.3253 152.349 77.379 160.998 72.3096C170.62 66.6695 176.084 55.7858 187.994 54.5947C200.389 53.3551 211.834 60.1994 222.14 66.1948Z" stroke="#BCD1DA" stroke-opacity="0.37"/>
<path opacity="0.5" fill-rule="evenodd" clip-rule="evenodd" d="M219.347 68.3367C229.494 75.4859 240.014 83.2667 243.032 93.9198C246.133 104.871 244.45 117.584 235.69 126.037C227.377 134.059 211.906 131.823 199.884 135.555C189.741 138.703 181.812 146.48 170.91 146.146C159.426 145.793 148.682 140.575 140.614 133.737C132.649 126.986 128.485 117.978 126.771 108.734C125.082 99.6292 124.81 89.6733 131.045 82.1394C136.999 74.9453 149.453 74.8382 158.53 70.3601C168.629 65.3778 175.23 54.8906 187.076 54.4964C199.405 54.0862 209.888 61.6726 219.347 68.3367Z" stroke="#BCD1DA" stroke-opacity="0.37"/>
<path opacity="0.571429" fill-rule="evenodd" clip-rule="evenodd" d="M216.36 70.1801C225.542 77.9745 235.02 86.4228 236.788 97.2327C238.606 108.345 235.515 120.894 225.938 128.73C216.85 136.166 201.873 132.911 189.618 135.828C179.278 138.289 170.596 145.507 159.902 144.449C148.638 143.335 138.65 137.424 131.479 130.077C124.4 122.825 121.318 113.577 120.673 104.257C120.038 95.077 120.893 85.144 127.881 78.0556C134.553 71.2868 146.825 72.0082 156.265 68.152C166.768 63.8616 174.449 53.8562 186.155 54.2513C198.337 54.6625 207.801 62.9146 216.36 70.1801Z" stroke="#BCD1DA" stroke-opacity="0.37"/>
<path opacity="0.642857" fill-rule="evenodd" clip-rule="evenodd" d="M213.218 71.7175C221.388 80.0815 229.776 89.1156 230.302 99.9863C230.842 111.161 226.383 123.439 216.064 130.597C206.272 137.389 191.88 133.155 179.476 135.242C169.011 137.003 159.643 143.605 149.225 141.842C138.25 139.984 129.074 133.44 122.836 125.655C116.677 117.97 114.681 108.566 115.095 99.2523C115.502 90.0783 117.463 80.2544 125.147 73.6679C132.484 67.3784 144.495 68.912 154.231 65.7038C165.063 62.1344 173.758 52.6924 185.248 53.8638C197.206 55.0829 205.602 63.9209 213.218 71.7175Z" stroke="#BCD1DA" stroke-opacity="0.37"/>
<path opacity="0.714286" fill-rule="evenodd" clip-rule="evenodd" d="M209.958 72.938C217.078 81.7934 224.339 91.3291 223.638 102.166C222.918 113.305 217.143 125.207 206.162 131.631C195.742 137.728 182.022 132.561 169.553 133.808C159.034 134.86 149.053 140.795 138.975 138.349C128.359 135.772 120.042 128.658 114.762 120.506C109.549 112.46 108.635 102.982 110.087 93.7556C111.518 84.6674 114.554 75.0368 122.871 69.0046C130.813 63.2444 142.488 65.5689 152.451 63.0303C163.536 60.2058 173.171 51.4036 184.372 53.3336C196.03 55.3421 203.32 64.6835 209.958 72.938Z" stroke="#BCD1DA" stroke-opacity="0.37"/>
<path opacity="0.785714" fill-rule="evenodd" clip-rule="evenodd" d="M206.615 73.836C212.657 83.1024 218.763 93.0535 216.863 103.762C214.91 114.77 207.882 126.197 196.325 131.838C185.358 137.191 172.389 131.143 159.94 131.546C149.437 131.885 138.922 137.108 129.246 134.004C119.052 130.735 111.634 123.117 107.33 114.673C103.08 106.337 103.234 96.8687 105.697 87.8082C108.123 78.8835 112.193 69.5281 121.077 64.098C129.56 58.9127 140.827 62.002 150.945 60.1497C162.204 58.0889 172.697 49.9977 183.541 52.6637C194.826 55.4382 200.982 65.1984 206.615 73.836Z" stroke="#BCD1DA" stroke-opacity="0.37"/>
<path opacity="0.857143" fill-rule="evenodd" clip-rule="evenodd" d="M203.23 74.4074C208.175 84.0032 213.107 94.2821 210.046 104.772C206.899 115.556 198.69 126.412 186.647 131.225C175.219 135.793 163.073 128.922 150.728 128.481C140.313 128.109 129.346 132.579 120.128 128.849C110.417 124.919 103.93 116.865 100.611 108.202C97.3342 99.6494 98.5332 90.2717 101.969 81.4538C105.353 72.7681 110.41 63.7663 119.788 58.9813C128.743 54.412 139.534 58.2353 149.738 57.0813C161.09 55.7973 172.353 48.4823 182.773 51.8573C193.616 55.3697 198.619 65.4627 203.23 74.4074Z" stroke="#BCD1DA" stroke-opacity="0.37"/>
<path opacity="0.928571" fill-rule="evenodd" clip-rule="evenodd" d="M199.837 74.654C203.676 84.4969 207.427 95.0157 203.25 105.2C198.957 115.668 189.651 125.865 177.216 129.814C165.415 133.561 154.158 125.927 142 124.65C131.742 123.573 120.408 127.254 111.702 122.931C102.53 118.378 96.9988 109.957 94.6658 101.149C92.3628 92.453 94.5758 83.2443 98.9389 74.7424C103.237 66.368 109.223 57.7943 119.02 53.6922C128.376 49.7751 138.627 54.2972 148.843 53.8484C160.208 53.349 172.146 46.8689 182.08 50.9216C192.417 55.1393 196.259 65.4788 199.837 74.654Z" stroke="#BCD1DA" stroke-opacity="0.37"/>
<path fill-rule="evenodd" clip-rule="evenodd" d="M196.473 74.5762C199.205 84.5843 201.776 95.2553 196.54 105.05C191.158 115.118 180.846 124.571 168.116 127.625C156.034 130.523 145.724 122.192 133.834 120.091C123.802 118.319 112.189 121.183 104.044 116.305C95.4637 111.166 90.9032 102.45 89.5495 93.5697C88.2131 84.803 91.4004 75.8392 96.6384 67.7229C101.798 59.7284 108.649 51.6527 118.787 48.2659C128.468 45.0317 138.12 50.2135 148.275 50.472C159.574 50.7595 172.087 45.1657 181.476 49.861C191.247 54.7474 193.927 65.2472 196.473 74.5762Z" stroke="#BCD1DA" stroke-opacity="0.37"/>
<path d="M111.891 115.858H106.078L106.047 112.827H111.031C111.885 112.827 112.599 112.707 113.172 112.468C113.745 112.228 114.177 111.879 114.469 111.421C114.771 110.963 114.922 110.405 114.922 109.749C114.922 109.02 114.781 108.426 114.5 107.968C114.229 107.509 113.802 107.176 113.219 106.968C112.635 106.749 111.896 106.64 111 106.64H107.469V125.999H103.172V103.249H111C112.292 103.249 113.443 103.374 114.453 103.624C115.474 103.864 116.339 104.239 117.047 104.749C117.755 105.259 118.292 105.9 118.656 106.671C119.031 107.442 119.219 108.358 119.219 109.421C119.219 110.358 119 111.223 118.562 112.015C118.135 112.796 117.474 113.431 116.578 113.921C115.693 114.41 114.568 114.692 113.203 114.765L111.891 115.858ZM111.703 125.999H104.812L106.609 122.624H111.703C112.557 122.624 113.26 122.483 113.812 122.202C114.375 121.921 114.792 121.535 115.062 121.046C115.344 120.546 115.484 119.973 115.484 119.327C115.484 118.619 115.359 118.004 115.109 117.483C114.87 116.963 114.484 116.562 113.953 116.28C113.432 115.999 112.745 115.858 111.891 115.858H107.422L107.453 112.827H113.141L114.125 113.999C115.438 114.009 116.505 114.27 117.328 114.78C118.161 115.291 118.776 115.947 119.172 116.749C119.568 117.551 119.766 118.416 119.766 119.343C119.766 120.801 119.448 122.025 118.812 123.015C118.188 124.004 117.271 124.749 116.062 125.249C114.865 125.749 113.411 125.999 111.703 125.999ZM132.484 122.405V114.608C132.484 114.035 132.385 113.541 132.188 113.124C131.99 112.707 131.688 112.384 131.281 112.155C130.875 111.926 130.359 111.812 129.734 111.812C129.182 111.812 128.698 111.905 128.281 112.093C127.875 112.28 127.562 112.546 127.344 112.89C127.125 113.223 127.016 113.608 127.016 114.046H122.875C122.875 113.348 123.042 112.687 123.375 112.062C123.708 111.426 124.182 110.864 124.797 110.374C125.422 109.874 126.167 109.483 127.031 109.202C127.906 108.921 128.885 108.78 129.969 108.78C131.25 108.78 132.391 108.999 133.391 109.437C134.401 109.864 135.193 110.509 135.766 111.374C136.349 112.239 136.641 113.327 136.641 114.64V122.015C136.641 122.858 136.693 123.582 136.797 124.187C136.911 124.78 137.078 125.296 137.297 125.733V125.999H133.094C132.896 125.572 132.745 125.03 132.641 124.374C132.536 123.707 132.484 123.051 132.484 122.405ZM133.062 115.702L133.094 118.155H130.484C129.839 118.155 129.271 118.223 128.781 118.358C128.292 118.483 127.891 118.671 127.578 118.921C127.266 119.16 127.031 119.452 126.875 119.796C126.719 120.129 126.641 120.509 126.641 120.937C126.641 121.353 126.734 121.728 126.922 122.062C127.12 122.395 127.401 122.66 127.766 122.858C128.141 123.046 128.578 123.14 129.078 123.14C129.807 123.14 130.443 122.994 130.984 122.702C131.526 122.4 131.948 122.035 132.25 121.608C132.552 121.181 132.714 120.775 132.734 120.39L133.922 122.171C133.776 122.598 133.557 123.051 133.266 123.53C132.974 124.009 132.599 124.457 132.141 124.874C131.682 125.291 131.13 125.634 130.484 125.905C129.839 126.176 129.089 126.312 128.234 126.312C127.141 126.312 126.161 126.093 125.297 125.655C124.432 125.218 123.75 124.619 123.25 123.858C122.75 123.098 122.5 122.233 122.5 121.265C122.5 120.369 122.667 119.577 123 118.89C123.333 118.202 123.828 117.624 124.484 117.155C125.141 116.676 125.953 116.317 126.922 116.077C127.901 115.827 129.021 115.702 130.281 115.702H133.062ZM144.406 112.702V125.999H140.281V109.093H144.156L144.406 112.702ZM143.75 116.937H142.531C142.542 115.707 142.708 114.593 143.031 113.593C143.354 112.593 143.807 111.733 144.391 111.015C144.984 110.296 145.688 109.744 146.5 109.358C147.312 108.973 148.219 108.78 149.219 108.78C150.031 108.78 150.766 108.895 151.422 109.124C152.078 109.353 152.641 109.718 153.109 110.218C153.589 110.718 153.953 111.374 154.203 112.187C154.464 112.989 154.594 113.978 154.594 115.155V125.999H150.438V115.124C150.438 114.353 150.323 113.744 150.094 113.296C149.875 112.848 149.552 112.53 149.125 112.343C148.708 112.155 148.193 112.062 147.578 112.062C146.943 112.062 146.385 112.192 145.906 112.452C145.438 112.702 145.042 113.051 144.719 113.499C144.406 113.947 144.167 114.463 144 115.046C143.833 115.629 143.75 116.259 143.75 116.937ZM162.359 101.983V125.999H158.234V101.983H162.359ZM172.953 109.093L165.594 117.358L161.609 121.405L160.297 118.202L163.375 114.327L167.969 109.093H172.953ZM168.734 125.999L163.5 118.124L166.25 115.452L173.516 125.999H168.734ZM196.734 118.515H201.031C200.917 120.035 200.495 121.384 199.766 122.562C199.036 123.728 198.021 124.645 196.719 125.312C195.417 125.978 193.839 126.312 191.984 126.312C190.557 126.312 189.271 126.062 188.125 125.562C186.99 125.051 186.016 124.327 185.203 123.39C184.401 122.442 183.786 121.306 183.359 119.983C182.932 118.65 182.719 117.155 182.719 115.499V113.765C182.719 112.108 182.938 110.614 183.375 109.28C183.812 107.947 184.438 106.812 185.25 105.874C186.073 104.926 187.057 104.197 188.203 103.687C189.359 103.176 190.651 102.921 192.078 102.921C193.932 102.921 195.5 103.265 196.781 103.952C198.062 104.629 199.057 105.562 199.766 106.749C200.474 107.937 200.901 109.301 201.047 110.843H196.75C196.667 109.884 196.458 109.072 196.125 108.405C195.802 107.739 195.312 107.233 194.656 106.89C194.01 106.535 193.151 106.358 192.078 106.358C191.245 106.358 190.51 106.515 189.875 106.827C189.25 107.14 188.729 107.608 188.312 108.233C187.896 108.848 187.583 109.619 187.375 110.546C187.167 111.463 187.062 112.525 187.062 113.733V115.499C187.062 116.655 187.156 117.692 187.344 118.608C187.531 119.525 187.823 120.301 188.219 120.937C188.615 121.572 189.125 122.056 189.75 122.39C190.375 122.723 191.12 122.89 191.984 122.89C193.036 122.89 193.891 122.723 194.547 122.39C195.214 122.056 195.719 121.567 196.062 120.921C196.417 120.275 196.641 119.473 196.734 118.515ZM213.359 122.405V114.608C213.359 114.035 213.26 113.541 213.062 113.124C212.865 112.707 212.562 112.384 212.156 112.155C211.75 111.926 211.234 111.812 210.609 111.812C210.057 111.812 209.573 111.905 209.156 112.093C208.75 112.28 208.438 112.546 208.219 112.89C208 113.223 207.891 113.608 207.891 114.046H203.75C203.75 113.348 203.917 112.687 204.25 112.062C204.583 111.426 205.057 110.864 205.672 110.374C206.297 109.874 207.042 109.483 207.906 109.202C208.781 108.921 209.76 108.78 210.844 108.78C212.125 108.78 213.266 108.999 214.266 109.437C215.276 109.864 216.068 110.509 216.641 111.374C217.224 112.239 217.516 113.327 217.516 114.64V122.015C217.516 122.858 217.568 123.582 217.672 124.187C217.786 124.78 217.953 125.296 218.172 125.733V125.999H213.969C213.771 125.572 213.62 125.03 213.516 124.374C213.411 123.707 213.359 123.051 213.359 122.405ZM213.938 115.702L213.969 118.155H211.359C210.714 118.155 210.146 118.223 209.656 118.358C209.167 118.483 208.766 118.671 208.453 118.921C208.141 119.16 207.906 119.452 207.75 119.796C207.594 120.129 207.516 120.509 207.516 120.937C207.516 121.353 207.609 121.728 207.797 122.062C207.995 122.395 208.276 122.66 208.641 122.858C209.016 123.046 209.453 123.14 209.953 123.14C210.682 123.14 211.318 122.994 211.859 122.702C212.401 122.4 212.823 122.035 213.125 121.608C213.427 121.181 213.589 120.775 213.609 120.39L214.797 122.171C214.651 122.598 214.432 123.051 214.141 123.53C213.849 124.009 213.474 124.457 213.016 124.874C212.557 125.291 212.005 125.634 211.359 125.905C210.714 126.176 209.964 126.312 209.109 126.312C208.016 126.312 207.036 126.093 206.172 125.655C205.307 125.218 204.625 124.619 204.125 123.858C203.625 123.098 203.375 122.233 203.375 121.265C203.375 120.369 203.542 119.577 203.875 118.89C204.208 118.202 204.703 117.624 205.359 117.155C206.016 116.676 206.828 116.317 207.797 116.077C208.776 115.827 209.896 115.702 211.156 115.702H213.938ZM225.359 112.546V125.999H221.234V109.093H225.141L225.359 112.546ZM230.5 108.983L230.438 112.827C230.208 112.785 229.948 112.754 229.656 112.733C229.375 112.713 229.109 112.702 228.859 112.702C228.224 112.702 227.667 112.791 227.188 112.968C226.708 113.134 226.307 113.379 225.984 113.702C225.672 114.025 225.432 114.421 225.266 114.89C225.099 115.348 225.005 115.869 224.984 116.452L224.094 116.343C224.094 115.27 224.203 114.275 224.422 113.358C224.641 112.442 224.958 111.64 225.375 110.952C225.792 110.265 226.312 109.733 226.938 109.358C227.573 108.973 228.302 108.78 229.125 108.78C229.354 108.78 229.599 108.801 229.859 108.843C230.13 108.874 230.344 108.921 230.5 108.983ZM242.594 122.405V101.999H246.75V125.999H243L242.594 122.405ZM231.734 117.749V117.421C231.734 116.129 231.88 114.957 232.172 113.905C232.474 112.843 232.911 111.931 233.484 111.171C234.057 110.41 234.75 109.822 235.562 109.405C236.385 108.989 237.318 108.78 238.359 108.78C239.37 108.78 240.25 108.983 241 109.39C241.76 109.796 242.406 110.374 242.938 111.124C243.479 111.874 243.911 112.765 244.234 113.796C244.557 114.817 244.792 115.942 244.938 117.171V118.062C244.792 119.259 244.557 120.358 244.234 121.358C243.911 122.358 243.479 123.233 242.938 123.983C242.406 124.723 241.76 125.296 241 125.702C240.24 126.108 239.349 126.312 238.328 126.312C237.297 126.312 236.37 126.098 235.547 125.671C234.734 125.244 234.042 124.645 233.469 123.874C232.906 123.103 232.474 122.197 232.172 121.155C231.88 120.114 231.734 118.978 231.734 117.749ZM235.875 117.421V117.749C235.875 118.478 235.938 119.16 236.062 119.796C236.188 120.431 236.391 120.994 236.672 121.483C236.953 121.963 237.312 122.338 237.75 122.608C238.198 122.879 238.74 123.015 239.375 123.015C240.188 123.015 240.854 122.838 241.375 122.483C241.906 122.119 242.318 121.624 242.609 120.999C242.901 120.364 243.089 119.65 243.172 118.858V116.405C243.13 115.78 243.021 115.202 242.844 114.671C242.677 114.14 242.438 113.681 242.125 113.296C241.823 112.91 241.448 112.608 241 112.39C240.552 112.171 240.021 112.062 239.406 112.062C238.771 112.062 238.229 112.202 237.781 112.483C237.333 112.754 236.969 113.134 236.688 113.624C236.406 114.114 236.198 114.681 236.062 115.327C235.938 115.973 235.875 116.671 235.875 117.421Z" fill="white"/>
<path d="M150.516 65.5381H147.477V64.3115H150.516C151.104 64.3115 151.581 64.2178 151.945 64.0303C152.31 63.8428 152.576 63.5824 152.742 63.249C152.914 62.9157 153 62.5355 153 62.1084C153 61.7178 152.914 61.3506 152.742 61.0068C152.576 60.6631 152.31 60.387 151.945 60.1787C151.581 59.9652 151.104 59.8584 150.516 59.8584H147.828V69.999H146.32V58.624H150.516C151.375 58.624 152.102 58.7725 152.695 59.0693C153.289 59.3662 153.74 59.7777 154.047 60.3037C154.354 60.8245 154.508 61.4209 154.508 62.0928C154.508 62.8219 154.354 63.4443 154.047 63.96C153.74 64.4756 153.289 64.8688 152.695 65.1396C152.102 65.4053 151.375 65.5381 150.516 65.5381ZM161.086 68.5537V64.2021C161.086 63.8688 161.018 63.5798 160.883 63.335C160.753 63.085 160.555 62.8923 160.289 62.7568C160.023 62.6214 159.695 62.5537 159.305 62.5537C158.94 62.5537 158.62 62.6162 158.344 62.7412C158.073 62.8662 157.859 63.0303 157.703 63.2334C157.552 63.4365 157.477 63.6553 157.477 63.8896H156.031C156.031 63.5876 156.109 63.2881 156.266 62.9912C156.422 62.6943 156.646 62.4261 156.938 62.1865C157.234 61.9417 157.589 61.749 158 61.6084C158.417 61.4626 158.88 61.3896 159.391 61.3896C160.005 61.3896 160.547 61.4938 161.016 61.7021C161.49 61.9105 161.859 62.2256 162.125 62.6475C162.396 63.0641 162.531 63.5876 162.531 64.2178V68.1553C162.531 68.4365 162.555 68.736 162.602 69.0537C162.654 69.3714 162.729 69.6449 162.828 69.874V69.999H161.32C161.247 69.8324 161.19 69.611 161.148 69.335C161.107 69.0537 161.086 68.7933 161.086 68.5537ZM161.336 64.874L161.352 65.8896H159.891C159.479 65.8896 159.112 65.9235 158.789 65.9912C158.466 66.0537 158.195 66.1501 157.977 66.2803C157.758 66.4105 157.591 66.5745 157.477 66.7725C157.362 66.9652 157.305 67.1917 157.305 67.4521C157.305 67.7178 157.365 67.96 157.484 68.1787C157.604 68.3975 157.784 68.5719 158.023 68.7021C158.268 68.8271 158.568 68.8896 158.922 68.8896C159.365 68.8896 159.755 68.7959 160.094 68.6084C160.432 68.4209 160.701 68.1917 160.898 67.9209C161.102 67.6501 161.211 67.387 161.227 67.1318L161.844 67.8271C161.807 68.0459 161.708 68.2881 161.547 68.5537C161.385 68.8193 161.169 69.0745 160.898 69.3193C160.633 69.5589 160.315 69.7594 159.945 69.9209C159.581 70.0771 159.169 70.1553 158.711 70.1553C158.138 70.1553 157.635 70.0433 157.203 69.8193C156.776 69.5954 156.443 69.2959 156.203 68.9209C155.969 68.5407 155.852 68.1162 155.852 67.6475C155.852 67.1943 155.94 66.7959 156.117 66.4521C156.294 66.1032 156.549 65.8141 156.883 65.585C157.216 65.3506 157.617 65.1735 158.086 65.0537C158.555 64.9339 159.078 64.874 159.656 64.874H161.336ZM167.055 69.124L169.406 61.5459H170.953L167.562 71.3037C167.484 71.512 167.38 71.736 167.25 71.9756C167.125 72.2204 166.964 72.4521 166.766 72.6709C166.568 72.8896 166.328 73.0667 166.047 73.2021C165.771 73.3428 165.44 73.4131 165.055 73.4131C164.94 73.4131 164.794 73.3975 164.617 73.3662C164.44 73.335 164.315 73.3089 164.242 73.2881L164.234 72.1162C164.276 72.1214 164.341 72.1266 164.43 72.1318C164.523 72.1423 164.589 72.1475 164.625 72.1475C164.953 72.1475 165.232 72.1032 165.461 72.0146C165.69 71.9313 165.883 71.7881 166.039 71.585C166.201 71.387 166.339 71.1136 166.453 70.7646L167.055 69.124ZM165.328 61.5459L167.523 68.1084L167.898 69.6318L166.859 70.1631L163.75 61.5459H165.328ZM178.367 68.499L180.539 61.5459H181.492L181.305 62.9287L179.094 69.999H178.164L178.367 68.499ZM176.906 61.5459L178.758 68.5771L178.891 69.999H177.914L175.461 61.5459H176.906ZM183.57 68.5225L185.336 61.5459H186.773L184.32 69.999H183.352L183.57 68.5225ZM181.703 61.5459L183.828 68.3818L184.07 69.999H183.148L180.875 62.9131L180.688 61.5459H181.703ZM189.828 61.5459V69.999H188.375V61.5459H189.828ZM188.266 59.3037C188.266 59.0693 188.336 58.8714 188.477 58.71C188.622 58.5485 188.836 58.4678 189.117 58.4678C189.393 58.4678 189.604 58.5485 189.75 58.71C189.901 58.8714 189.977 59.0693 189.977 59.3037C189.977 59.5277 189.901 59.7204 189.75 59.8818C189.604 60.0381 189.393 60.1162 189.117 60.1162C188.836 60.1162 188.622 60.0381 188.477 59.8818C188.336 59.7204 188.266 59.5277 188.266 59.3037ZM195.688 61.5459V62.6553H191.117V61.5459H195.688ZM192.664 59.4912H194.109V67.9053C194.109 68.1917 194.154 68.4079 194.242 68.5537C194.331 68.6995 194.445 68.7959 194.586 68.8428C194.727 68.8896 194.878 68.9131 195.039 68.9131C195.159 68.9131 195.284 68.9027 195.414 68.8818C195.549 68.8558 195.651 68.835 195.719 68.8193L195.727 69.999C195.612 70.0355 195.461 70.0693 195.273 70.1006C195.091 70.137 194.87 70.1553 194.609 70.1553C194.255 70.1553 193.93 70.085 193.633 69.9443C193.336 69.8037 193.099 69.5693 192.922 69.2412C192.75 68.9079 192.664 68.46 192.664 67.8975V59.4912ZM198.828 57.999V69.999H197.383V57.999H198.828ZM198.484 65.4521L197.883 65.4287C197.888 64.8506 197.974 64.3167 198.141 63.8271C198.307 63.3324 198.542 62.9027 198.844 62.5381C199.146 62.1735 199.505 61.8923 199.922 61.6943C200.344 61.4912 200.81 61.3896 201.32 61.3896C201.737 61.3896 202.112 61.4469 202.445 61.5615C202.779 61.6709 203.062 61.848 203.297 62.0928C203.536 62.3376 203.719 62.6553 203.844 63.0459C203.969 63.4313 204.031 63.9027 204.031 64.46V69.999H202.578V64.4443C202.578 64.0016 202.513 63.6475 202.383 63.3818C202.253 63.111 202.062 62.9157 201.812 62.7959C201.562 62.6709 201.255 62.6084 200.891 62.6084C200.531 62.6084 200.203 62.6839 199.906 62.835C199.615 62.986 199.362 63.1943 199.148 63.46C198.94 63.7256 198.776 64.0303 198.656 64.374C198.542 64.7126 198.484 65.0719 198.484 65.4521Z" fill="#F4F8FF"/>
<path fill-rule="evenodd" clip-rule="evenodd" d="M82.4067 70.9057C81.6567 71.1357 74.8267 70.9857 73.4367 70.9857H48.7567C47.8667 70.9657 47.8667 70.1257 48.8367 70.1257H81.6867C82.3867 70.1257 82.7567 70.2057 82.4067 70.9057ZM50.8467 69.0157C51.3367 68.8757 75.4767 69.0257 79.3167 68.9857C80.6167 68.9757 80.0467 69.7257 79.8567 69.8057C79.5167 69.9357 56.0367 69.8357 51.3367 69.8557C50.1767 69.8557 50.4367 69.1457 50.8367 69.0257L50.8467 69.0157ZM54.8567 68.6957C54.1367 68.6957 51.6767 68.9257 52.4567 67.9957C52.7167 67.6857 55.0767 67.8357 55.6467 67.8357H75.7967C77.4167 67.8357 78.4767 67.5857 78.2467 68.5557C77.6267 68.8457 72.7767 68.6857 71.6367 68.6857C66.0467 68.6857 60.4467 68.6857 54.8567 68.6857V68.6957ZM77.0867 67.4557C76.6267 67.6257 73.9967 67.6457 73.5667 67.4657C73.3667 66.9157 73.5267 66.9257 73.9667 66.7857V53.9257C73.6767 53.8257 73.5467 53.8857 73.4867 53.5957C73.3467 52.9257 74.4567 53.1457 75.3567 53.1457C75.8867 53.1457 77.5167 52.9357 77.0867 53.6957C76.9567 53.9257 76.8567 53.8057 76.6567 53.9757V66.7457C76.9467 66.9957 77.2867 66.8257 77.0667 67.4657L77.0867 67.4557ZM70.4367 66.9257C70.6467 67.7757 70.1067 67.5557 68.3467 67.5557C68.0567 67.5557 66.4667 67.7457 66.8867 67.0057C67.0067 66.7957 67.0967 66.8657 67.3167 66.7857V53.9257C67.0767 53.8457 66.7167 53.7557 66.8767 53.3657C66.9867 53.0857 67.3467 53.1457 67.7067 53.1457C68.4267 53.1457 69.1467 53.1457 69.8667 53.1457C70.2167 53.1457 70.5167 53.1657 70.4967 53.5357C70.4867 53.8257 70.3967 53.7757 70.2467 53.8457C69.9267 54.0057 70.0767 53.7157 70.0067 54.1057L70.0167 66.7357C70.1567 66.8557 70.2667 66.8457 70.4467 66.9257H70.4367ZM63.7667 67.4757C62.7467 67.6057 61.7067 67.5457 60.6767 67.5457C60.3567 67.5457 60.0767 67.3957 60.2067 67.0557C60.3767 66.5957 60.5867 67.1157 60.6667 66.5957L60.6567 54.4657C60.6567 53.3557 60.4867 54.1957 60.2167 53.6957C59.9867 53.2757 60.3967 53.1457 60.7467 53.1357C61.4867 53.1357 62.2267 53.1357 62.9767 53.1357C63.3267 53.1357 63.7067 53.0757 63.8167 53.3457C63.9967 53.7857 63.6467 53.8357 63.3667 53.9057V66.7757C63.7367 66.9057 63.9967 66.8757 63.7767 67.4657L63.7667 67.4757ZM54.3667 67.5457C54.0067 67.5457 53.6267 67.5957 53.5367 67.2757C53.4367 66.8757 53.7967 66.8957 53.9967 66.7357V54.0457C53.8867 53.6957 53.8967 54.0257 53.6367 53.7757C53.5467 53.6857 53.4667 53.5257 53.5867 53.3357C53.7567 53.0657 54.3167 53.1557 54.6667 53.1557C55.3167 53.1557 56.6267 53.0557 57.1267 53.2457C57.3067 53.8057 57.1567 53.7957 56.7067 53.9357V66.7957C57.1267 66.9457 57.3167 66.9057 57.1067 67.4757C56.7167 67.6357 54.8667 67.5657 54.3767 67.5657L54.3667 67.5457ZM52.9367 52.8557C52.5867 52.8557 52.3067 52.7057 52.3667 52.3257C52.4267 51.9357 52.8267 51.9957 53.2167 51.9957H77.5267C77.9567 51.9957 78.3467 51.9757 78.3167 52.4457C78.2867 52.8357 77.9667 52.8557 77.5967 52.8557H52.9267H52.9367ZM52.5767 51.0257C55.0967 49.2257 57.7567 47.1957 60.2567 45.4357L64.5367 42.3257C64.7367 42.1757 65.1767 41.7557 65.3967 41.7857C65.5167 41.8057 71.5867 46.2957 72.2467 46.7657L79.0067 51.7057L53.2167 51.7157C52.9567 51.7157 52.6867 51.7157 52.4267 51.7157C52.2967 51.7157 52.1167 51.7257 51.9967 51.7157C51.8967 51.7057 51.8967 51.7057 51.8167 51.6857C51.8067 51.6857 51.7767 51.6857 51.7667 51.6657C51.7567 51.6457 51.7367 51.6557 51.7167 51.6457L52.5867 51.0157L52.5767 51.0257ZM51.7967 49.5257C52.1467 49.2757 52.4967 49.0357 52.8367 48.7657L55.9567 46.5057C57.0367 45.7457 64.6767 40.0557 65.3467 39.6757L78.9467 49.5357C79.8767 50.1857 81.1767 51.2457 82.0567 51.7957C81.9467 52.1057 81.8567 52.1657 81.6667 52.4057C81.4667 52.6557 81.4667 52.7757 81.2067 52.9557L69.3167 44.3257C68.6467 43.8357 68.0067 43.3857 67.3167 42.8757L65.3567 41.4757C65.0167 41.6357 64.6967 41.9357 64.3567 42.1857C64.0267 42.4357 63.7167 42.6257 63.3567 42.9057L57.4167 47.2257C57.0667 47.4557 56.7767 47.7057 56.4267 47.9557C56.0867 48.1957 55.7467 48.4457 55.4267 48.6757C54.9467 49.0057 49.7667 52.8757 49.5067 52.9557C49.2867 52.7757 48.7967 52.0257 48.6667 51.8057L51.8067 49.5057L51.7967 49.5257ZM90.7667 38.8757L90.7067 38.7557C90.5767 38.8457 90.5167 38.8157 90.4067 38.7557C90.6167 38.4857 90.5967 38.8757 90.6267 38.6457L90.5667 38.5457C90.3667 38.7557 90.4867 38.6657 90.3167 38.5957L90.5567 38.4457L90.5367 38.4757C90.3867 38.4057 90.4167 38.4657 90.4167 38.3257L90.3867 38.2657C90.1867 38.2657 90.2167 38.3157 90.2767 38.1357L89.9967 38.3757C90.0667 38.3557 89.9867 38.3857 90.1067 38.3457C90.1167 38.3457 90.1367 38.3357 90.1467 38.3357C90.1567 38.3357 90.1767 38.3257 90.1767 38.3257C90.1867 38.3257 90.2067 38.3157 90.2067 38.3157C90.2167 38.3157 90.1867 38.2657 90.3067 38.3157C90.4967 38.3957 90.3667 38.6957 90.2967 38.8157H40.4567C40.4467 38.7957 40.4267 38.7757 40.4167 38.7657C40.2967 38.5957 40.2867 38.5457 40.1567 38.4857L40.1367 38.4657C40.3267 38.6557 40.2367 38.3257 40.2967 38.6957C40.0867 38.5857 40.1467 38.8257 40.1167 38.5757C40.1767 38.7157 40.2067 38.6957 40.0567 38.6757C40.1067 38.8257 40.1267 38.7757 39.9567 38.7757C39.6467 38.9657 38.3667 41.4257 38.0767 41.9957C32.9167 52.1157 34.4367 65.0857 41.2167 73.7857C42.2167 75.0657 44.4367 77.4557 45.5867 78.3857L46.3067 78.9557C51.0367 83.0057 58.1467 85.6357 65.1867 85.6757C72.2467 85.7157 77.7767 83.5257 82.7767 80.1757C84.6167 78.9357 86.6767 76.9357 88.1867 75.3257C89.1467 74.2957 90.6767 72.1057 91.4067 70.8657C94.0667 66.3257 95.8267 60.9257 95.6667 54.6257C95.5567 50.3557 94.5167 45.8857 92.6867 42.1857C92.4067 41.6157 91.1367 39.1757 90.8567 38.9857C90.6567 39.0157 91.0267 39.0357 90.7267 38.9757L90.6167 38.9257C90.6667 38.9057 90.7367 38.8857 90.7567 38.8857L90.7667 38.8757Z" fill="#FF6363"/>
<path fill-rule="evenodd" clip-rule="evenodd" d="M90.8473 38.9853C90.8273 38.8454 90.8773 38.8554 90.7473 38.8854C90.7873 38.7353 90.8373 38.7554 90.6873 38.7654L90.6073 38.6553C90.6473 38.5054 90.6873 38.5253 90.5473 38.5554L90.5273 38.4453L90.2873 38.5954C90.4573 38.6653 90.3373 38.7654 90.5373 38.5454L90.5973 38.6454C90.5673 38.8653 90.5873 38.4853 90.3773 38.7554C90.4873 38.8153 90.5473 38.8454 90.6773 38.7554L90.7373 38.8753C90.7173 38.8753 90.6473 38.8954 90.5973 38.9153L90.7073 38.9654C90.9973 39.0253 90.6373 39.0054 90.8373 38.9754L90.8473 38.9853ZM90.2573 38.1354C90.1973 38.3153 90.1673 38.2654 90.3673 38.2654C90.3473 38.0854 90.4073 38.1054 90.2573 38.1354C90.2373 37.9254 90.2873 38.1054 90.1973 37.9254L87.1073 34.2054C86.6873 33.7654 86.3473 33.4554 85.8873 32.9854L83.9173 31.3654C82.3973 30.2354 82.0673 29.9654 80.3173 28.9354C73.5473 24.9554 64.6673 23.8954 56.7773 26.2054C53.5673 27.1454 49.8573 28.9554 47.1573 30.9954C44.8273 32.7654 42.9673 34.6354 41.1373 36.9553C40.9173 37.2353 40.2173 38.1953 40.1273 38.4654C40.2573 38.5154 40.2773 38.5753 40.3873 38.7453C40.3973 38.7554 40.4073 38.7853 40.4273 38.7954H90.2673C90.3373 38.6854 90.4573 38.3753 90.2773 38.2954C90.1673 38.2453 90.1973 38.2954 90.1773 38.2954C90.1673 38.2954 90.1473 38.3054 90.1473 38.3054C90.1373 38.3054 90.1173 38.3153 90.1173 38.3153C90.1073 38.3153 90.0873 38.3253 90.0773 38.3253C89.9573 38.3554 90.0373 38.3354 89.9673 38.3554L90.2473 38.1153L90.2573 38.1354ZM40.1073 38.5554C39.9673 38.5253 40.0073 38.5054 40.0473 38.6553C39.9273 38.6354 39.9773 38.6253 39.9473 38.7554C40.1073 38.7554 40.0873 38.7954 40.0473 38.6553C40.1973 38.6653 40.1673 38.6953 40.1073 38.5554C40.1373 38.8054 40.0673 38.5653 40.2873 38.6754C40.2173 38.3054 40.3173 38.6354 40.1273 38.4453L40.1173 38.5554H40.1073ZM90.3973 38.3253C90.3973 38.4654 90.3673 38.4053 90.5173 38.4754C90.4973 38.2954 90.5473 38.3253 90.3973 38.3253ZM46.7073 33.7754C48.6173 32.2454 51.6273 30.5454 53.7873 29.6754C64.1173 25.4954 75.2873 27.1754 83.9573 33.7754L85.3173 34.9354C84.6773 34.6654 83.9173 34.2354 83.2473 33.9054C82.5673 33.5654 81.7973 33.2354 81.0573 32.9354C70.3773 28.6254 57.7373 28.8654 47.3673 33.9254C46.7173 34.2454 45.9773 34.6754 45.3473 34.9254L46.7073 33.7654V33.7754Z" fill="#FFB8B8"/>
<path fill-rule="evenodd" clip-rule="evenodd" d="M45.3477 34.9351C45.9777 34.6851 46.7177 34.2451 47.3677 33.9351C57.7377 28.8751 70.3877 28.6351 81.0577 32.9451C81.7877 33.2451 82.5677 33.5651 83.2477 33.9151C83.9177 34.2451 84.6777 34.6751 85.3177 34.9451L83.9577 33.7851C75.2877 27.1851 64.1277 25.5051 53.7877 29.6851C51.6277 30.5551 48.6177 32.2551 46.7077 33.7851L45.3477 34.9451V34.9351Z" fill="white"/>
<path fill-rule="evenodd" clip-rule="evenodd" d="M65.3275 44.0052L75.5475 51.4152L55.1675 51.4252C55.2175 51.3352 56.1975 50.5952 56.3475 50.4952L65.3375 44.0052H65.3275ZM51.6975 51.6652C51.7175 51.6752 51.7375 51.6652 51.7475 51.6852C51.7575 51.7052 51.7875 51.6952 51.7975 51.7052C51.8775 51.7252 51.8775 51.7252 51.9775 51.7352C52.0975 51.7452 52.2875 51.7352 52.4075 51.7352C52.6675 51.7352 52.9375 51.7352 53.1975 51.7352L78.9875 51.7252L72.2275 46.7852C71.5675 46.3152 65.4975 41.8252 65.3775 41.8052C65.1575 41.7752 64.7275 42.1952 64.5175 42.3452L60.2375 45.4552C57.7275 47.2152 55.0675 49.2352 52.5575 51.0452L51.6875 51.6752L51.6975 51.6652Z" fill="white"/>
<path fill-rule="evenodd" clip-rule="evenodd" d="M63.6265 48.1149L64.6565 48.1249L65.1065 50.6649H64.4365L64.3165 50.2649H63.8965L63.7465 50.6649L63.1365 50.6749L63.6265 48.1149ZM65.3465 48.1149L66.0165 48.1249L66.5365 49.2749L66.5665 48.1149L67.1765 48.1249V50.6649L66.5065 50.6749L65.9565 49.5349L65.9365 50.6649H65.3065L65.3365 48.1149H65.3465ZM61.2665 48.1249C62.3865 48.0149 63.5065 48.1049 62.7765 49.3049C62.8965 49.4649 63.0565 49.5949 63.0465 49.9449C63.0265 50.8049 62.1365 50.7549 61.2465 50.6449L61.2565 48.1249H61.2665ZM67.5265 48.1149H68.2265L68.2565 49.1349L68.5965 48.1049H69.3665C69.2865 48.4649 68.9265 49.2149 68.9265 49.4349C68.9265 49.6349 69.2565 50.3549 69.3365 50.6549L68.5665 50.6449L68.2365 49.7549L68.2165 50.6649L67.5365 50.6549V50.0149V48.1149H67.5265ZM56.3265 50.4949C56.1765 50.5949 55.1965 51.3349 55.1465 51.4249L75.5265 51.4149L65.3065 44.0049L56.3165 50.4949H56.3265Z" fill="#FF0000"/>
<path fill-rule="evenodd" clip-rule="evenodd" d="M48.637 51.8253C48.767 52.0453 49.257 52.8053 49.477 52.9753C49.737 52.8953 54.917 49.0353 55.397 48.6953C55.717 48.4653 56.057 48.2153 56.397 47.9753C56.747 47.7253 57.037 47.4753 57.387 47.2453L63.327 42.9253C63.687 42.6453 63.997 42.4453 64.327 42.2053C64.667 41.9553 64.977 41.6653 65.327 41.4953L67.287 42.8953C67.977 43.3953 68.617 43.8453 69.287 44.3453L81.177 52.9753C81.437 52.7953 81.447 52.6753 81.637 52.4253C81.827 52.1853 81.927 52.1153 82.027 51.8153C81.147 51.2653 79.847 50.1953 78.917 49.5553L65.317 39.6953C64.647 40.0653 57.007 45.7553 55.927 46.5253L52.807 48.7853C52.467 49.0553 52.117 49.2953 51.767 49.5453L48.627 51.8453L48.637 51.8253Z" fill="white"/>
<path fill-rule="evenodd" clip-rule="evenodd" d="M60.6467 54.4751L60.6567 66.6051C60.5767 67.1251 60.3567 66.6051 60.1967 67.0651C60.0667 67.4051 60.3567 67.5551 60.6667 67.5551C61.6967 67.5551 62.7367 67.6151 63.7567 67.4851C63.9867 66.8951 63.7267 66.9251 63.3467 66.7951V53.9251C63.6267 53.8451 63.9767 53.7951 63.7967 53.3651C63.6867 53.0951 63.3067 53.1551 62.9567 53.1551C62.2167 53.1651 61.4767 53.1551 60.7267 53.1551C60.3867 53.1551 59.9667 53.2951 60.1967 53.7151C60.4667 54.2151 60.6367 53.3751 60.6367 54.4851L60.6467 54.4751Z" fill="white"/>
<path fill-rule="evenodd" clip-rule="evenodd" d="M67.3068 53.925V66.785C67.0868 66.865 66.9968 66.795 66.8768 67.005C66.4568 67.745 68.0468 67.555 68.3368 67.555C70.0968 67.555 70.6368 67.775 70.4268 66.925C70.2468 66.845 70.1368 66.855 69.9968 66.735L69.9868 54.105C70.0468 53.715 69.8968 54.005 70.2268 53.845C70.3768 53.775 70.4668 53.815 70.4768 53.535C70.4868 53.165 70.1868 53.145 69.8468 53.145C69.1268 53.145 68.4068 53.155 67.6868 53.145C67.3268 53.145 66.9768 53.085 66.8568 53.365C66.6968 53.745 67.0668 53.845 67.2968 53.925H67.3068Z" fill="white"/>
<path fill-rule="evenodd" clip-rule="evenodd" d="M75.6873 65.8052V55.1152C75.6873 54.8352 75.6173 54.8052 75.8073 54.7052C75.9873 54.9952 75.8773 59.8852 75.8773 60.7152V65.7352C75.8773 65.9652 75.8973 65.8652 75.8073 66.0052C75.7473 65.9652 75.6873 66.0352 75.6873 65.8052ZM73.9773 53.9252V66.7852C73.5373 66.9252 73.3773 66.9252 73.5773 67.4652C74.0073 67.6452 76.6373 67.6352 77.0973 67.4552C77.3173 66.8152 76.9773 66.9852 76.6873 66.7352V53.9652C76.8773 53.7952 76.9873 53.9152 77.1173 53.6852C77.5473 52.9352 75.9173 53.1352 75.3873 53.1352C74.4873 53.1352 73.3773 52.9152 73.5173 53.5852C73.5773 53.8752 73.7073 53.8152 73.9973 53.9152L73.9773 53.9252Z" fill="white"/>
<path fill-rule="evenodd" clip-rule="evenodd" d="M54.8568 54.7057C55.0968 54.8457 54.9768 57.0457 54.9768 57.4157C54.9768 58.3957 54.9768 59.3757 54.9768 60.3557V64.6557C54.9768 64.9657 55.1168 65.8557 54.8568 66.0057C54.7068 65.7657 54.7068 54.9457 54.8568 54.7057ZM53.9768 54.0457V66.7357C53.7768 66.9057 53.4168 66.8857 53.5168 67.2757C53.5968 67.5957 53.9868 67.5457 54.3468 67.5457C54.8468 67.5457 56.6868 67.6157 57.0768 67.4557C57.2768 66.8857 57.0868 66.9257 56.6768 66.7757V53.9157C57.1268 53.7657 57.2668 53.7857 57.0968 53.2257C56.5968 53.0357 55.2868 53.1357 54.6368 53.1357C54.2868 53.1357 53.7268 53.0457 53.5568 53.3157C53.4368 53.5057 53.5168 53.6757 53.6068 53.7557C53.8668 54.0057 53.8568 53.6857 53.9668 54.0257L53.9768 54.0457Z" fill="white"/>
<path fill-rule="evenodd" clip-rule="evenodd" d="M82.4077 70.905C82.7577 70.205 82.3877 70.125 81.6877 70.125H48.8377C47.8777 70.125 47.8677 70.975 48.7577 70.985H73.4377C74.8377 70.985 81.6577 71.145 82.4077 70.905Z" fill="white"/>
<path fill-rule="evenodd" clip-rule="evenodd" d="M50.8464 69.0154C50.4464 69.1354 50.1864 69.8454 51.3464 69.8454C56.0464 69.8254 79.5264 69.9354 79.8664 69.7954C80.0563 69.7254 80.6164 68.9654 79.3263 68.9754C75.4863 69.0154 51.3464 68.8654 50.8564 69.0054L50.8464 69.0154Z" fill="white"/>
<path fill-rule="evenodd" clip-rule="evenodd" d="M78.2564 68.5657C78.4764 67.5857 77.4264 67.8457 75.8064 67.8457H55.6564C55.0864 67.8457 52.7264 67.6857 52.4664 68.0057C51.6964 68.9357 54.1464 68.7057 54.8664 68.7057C60.4564 68.7057 66.0564 68.7057 71.6464 68.7057C72.7964 68.7057 77.6364 68.8557 78.2564 68.5757V68.5657Z" fill="white"/>
<path fill-rule="evenodd" clip-rule="evenodd" d="M52.9158 52.8653H77.5858C77.9558 52.8653 78.2758 52.8453 78.3058 52.4553C78.3358 51.9853 77.9458 52.0053 77.5158 52.0053H53.2058C52.8158 52.0053 52.4158 51.9453 52.3558 52.3353C52.2958 52.7153 52.5758 52.8653 52.9258 52.8653H52.9158Z" fill="white"/>
<path fill-rule="evenodd" clip-rule="evenodd" d="M65.3262 50.665L65.9562 50.675L65.9662 49.545L66.5162 50.685L67.1762 50.675L67.1862 48.135L66.5762 48.125L66.5462 49.285L66.0262 48.125H65.3462L65.3262 50.665Z" fill="white"/>
<path fill-rule="evenodd" clip-rule="evenodd" d="M62.0059 50.2154L61.9859 49.6354C62.3559 49.6154 62.3259 49.8154 62.2859 50.1454L62.0159 50.2154H62.0059ZM61.9959 48.7154C62.2059 48.7054 62.2759 48.7254 62.2759 48.9554C62.2759 49.1654 62.1959 49.2054 61.9859 49.1954L61.9959 48.7154ZM61.2559 50.6554C62.1459 50.7654 63.0459 50.8154 63.0559 49.9554C63.0659 49.6054 62.9059 49.4754 62.7859 49.3154C63.5059 48.1154 62.3959 48.0254 61.2759 48.1354L61.2659 50.6554H61.2559Z" fill="white"/>
<path fill-rule="evenodd" clip-rule="evenodd" d="M67.5373 50.0252V50.6652L68.2173 50.6752L68.2373 49.7652L68.5673 50.6552L69.3373 50.6652C69.2673 50.3652 68.9373 49.6352 68.9273 49.4452C68.9273 49.2252 69.2773 48.4752 69.3673 48.1152H68.5973L68.2573 49.1452L68.2273 48.1252H67.5273V50.0252H67.5373Z" fill="white"/>
<path fill-rule="evenodd" clip-rule="evenodd" d="M64.0367 49.795C63.9267 49.615 64.0367 49.235 64.0767 48.995C64.2167 49.185 64.2667 49.475 64.2467 49.805L64.0367 49.795ZM63.1367 50.685L63.7467 50.675L63.8967 50.275H64.3167L64.4367 50.675H65.1067L64.6567 48.135L63.6267 48.125L63.1367 50.685Z" fill="white"/>
<path fill-rule="evenodd" clip-rule="evenodd" d="M54.8566 54.7051C54.7066 54.9451 54.7066 65.7651 54.8566 66.0051C55.1066 65.8551 54.9766 64.9651 54.9766 64.6551V60.3551C54.9766 59.3751 54.9766 58.3951 54.9766 57.4151C54.9766 57.0451 55.1066 54.8451 54.8566 54.7051Z" fill="#FF0000"/>
<path fill-rule="evenodd" clip-rule="evenodd" d="M75.6861 65.8051C75.6861 66.0351 75.7461 65.9651 75.8061 66.0051C75.8961 65.8651 75.8761 65.9651 75.8761 65.7351V60.7151C75.8761 59.8851 75.9761 54.9951 75.8061 54.7051C75.6161 54.8151 75.6961 54.8351 75.6861 55.1151V65.8051Z" fill="#FF0000"/>
<path fill-rule="evenodd" clip-rule="evenodd" d="M62.2766 50.1452C62.3166 49.8152 62.3466 49.6152 61.9766 49.6352L61.9966 50.2152L62.2666 50.1452H62.2766Z" fill="#FF0000"/>
<path fill-rule="evenodd" clip-rule="evenodd" d="M64.0358 49.7951L64.2458 49.8051C64.2658 49.4751 64.2158 49.1851 64.0758 48.9951C64.0358 49.2351 63.9258 49.6151 64.0358 49.7951Z" fill="#F9AA30"/>
<path fill-rule="evenodd" clip-rule="evenodd" d="M61.9863 49.1949C62.1963 49.2049 62.2763 49.1549 62.2763 48.9549C62.2763 48.7249 62.1963 48.7049 61.9963 48.7149L61.9863 49.1949Z" fill="#FF0000"/>
</g>
<defs>
<filter id="filter0_d_957_729" x="0" y="-0.000976562" width="352" height="220" filterUnits="userSpaceOnUse" color-interpolation-filters="sRGB">
<feFlood flood-opacity="0" result="BackgroundImageFix"/>
<feColorMatrix in="SourceAlpha" type="matrix" values="0 0 0 0 0 0 0 0 0 0 0 0 0 0 0 0 0 0 127 0" result="hardAlpha"/>
<feOffset dy="4"/>
<feGaussianBlur stdDeviation="2"/>
<feComposite in2="hardAlpha" operator="out"/>
<feColorMatrix type="matrix" values="0 0 0 0 0 0 0 0 0 0 0 0 0 0 0 0 0 0 0.25 0"/>
<feBlend mode="normal" in2="BackgroundImageFix" result="effect1_dropShadow_957_729"/>
<feBlend mode="normal" in="SourceGraphic" in2="effect1_dropShadow_957_729" result="shape"/>
</filter>
<linearGradient id="paint0_linear_957_729" x1="176" y1="-0.000976563" x2="176" y2="211.999" gradientUnits="userSpaceOnUse">
<stop stop-color="#FF5689" stop-opacity="0.59"/>
<stop offset="0.523958" stop-color="#FF7777"/>
<stop offset="1" stop-color="#910000"/>
</linearGradient>
</defs>
</svg>
