<svg width="22" height="26" viewBox="0 0 22 26" fill="none" xmlns="http://www.w3.org/2000/svg">
<path d="M11 18.5941L15 13.1427H12V0.876953H10V13.1427H7L11 18.5941ZM20 0.876953H14V3.58904H20V22.7099H2V3.58904H8V0.876953H2C1.47005 0.87911 0.962265 1.16698 0.587535 1.67768C0.212805 2.18838 0.00158273 2.88043 0 3.60267V22.6827C0.00158273 23.4049 0.212805 24.097 0.587535 24.6077C0.962265 25.1184 1.47005 25.4062 2 25.4084H20C20.5299 25.4062 21.0377 25.1184 21.4125 24.6077C21.7872 24.097 21.9984 23.4049 22 22.6827V3.60267C21.9984 2.88043 21.7872 2.18838 21.4125 1.67768C21.0377 1.16698 20.5299 0.87911 20 0.876953Z" fill="black"/>
</svg>
